<svg width="374" height="188" viewBox="0 0 374 188" fill="none" xmlns="http://www.w3.org/2000/svg">
<path d="M101.607 177.488C100.369 170.466 116.496 161.464 139.902 155.142C115.745 157.206 97.511 154.257 96.274 147.242L96.2116 146.888C94.9735 139.866 111.101 130.865 134.506 124.543C110.349 126.601 92.1144 123.652 90.8763 116.63L90.8139 116.276C89.3274 107.846 112.876 96.554 144.009 90.4795C144.303 90.4024 144.623 90.3334 144.945 90.2766L299.406 63.0411C299.728 62.9843 300.052 62.9397 300.355 62.9114C331.711 57.9676 357.678 60.528 359.165 68.9587L359.227 69.3125C360.465 76.3341 344.338 85.3357 320.933 91.6579C345.112 89.5897 363.323 92.5428 364.56 99.5582L364.623 99.9121C365.861 106.934 349.734 115.935 326.329 122.264C350.509 120.195 368.72 123.148 369.957 130.164L370.019 130.518C371.571 139.314 345.856 151.233 312.668 157.085L164.647 183.185C131.462 189.049 103.222 186.644 101.671 177.847L101.607 177.488Z" fill="#EDE2FF"/>
<path d="M2 2C43.3361 2 75.288 32.1431 78.033 60.935C79.2006 73.1827 78.2574 82.5085 59.6593 86.118C48.0407 88.3729 36.8132 90.6338 36.8132 79.9097C36.8132 69.5473 39.3032 61.7846 53.011 57.0877C75.4735 49.3909 98.7939 46.2496 123.604 46.0701C144.001 45.9226 162.406 45.3516 179.934 54.2896C186.466 57.6203 199.396 66.3497 202 72" stroke="#EDE2FF" stroke-width="3" stroke-linecap="round"/>
<path d="M163.484 128.191C162.856 128.313 162.389 128.271 162.085 128.065C161.78 127.86 161.572 127.472 161.461 126.903L158.176 109.999C158.099 109.607 158.182 109.244 158.423 108.912C158.66 108.56 158.965 108.348 159.338 108.276L164.344 107.303C165.758 107.028 167.013 107.039 168.11 107.335C169.222 107.608 170.112 108.097 170.779 108.802C171.442 109.489 171.863 110.293 172.043 111.216C172.329 112.688 172.116 114.003 171.403 115.16C172.496 115.437 173.364 115.92 174.008 116.61C174.648 117.28 175.078 118.185 175.299 119.323C175.696 121.365 174.912 123.147 172.946 124.67C170.977 126.174 167.823 127.347 163.484 128.191ZM166.897 115.089C167.702 114.932 168.306 114.53 168.71 113.881C169.129 113.208 169.27 112.519 169.133 111.812C168.999 111.125 168.555 110.62 167.8 110.298C167.06 109.953 166.092 109.897 164.894 110.13L161.39 110.811L162.391 115.964L166.897 115.089ZM164.177 125.153C166.781 124.606 168.85 123.878 170.385 122.968C171.939 122.055 172.605 121.029 172.384 119.89C172.22 119.046 171.705 118.443 170.84 118.081C169.972 117.7 168.84 117.645 167.447 117.916L162.941 118.792L164.177 125.153ZM181.205 124.654C180.836 124.746 180.475 124.674 180.124 124.437C179.772 124.199 179.56 123.894 179.487 123.521L176.15 106.353C176.074 105.96 176.146 105.6 176.368 105.271C176.605 104.92 176.93 104.704 177.342 104.623C177.735 104.547 178.097 104.629 178.429 104.871C178.777 105.088 178.989 105.393 179.065 105.786L182.099 121.394L190.006 119.307C190.415 119.207 190.783 119.268 191.111 119.489C191.436 119.691 191.64 120.008 191.724 120.44C191.793 120.793 191.72 121.154 191.506 121.521C191.308 121.865 191.035 122.081 190.685 122.17L181.205 124.654ZM200.341 120.965C198.888 121.248 197.504 121.099 196.189 120.519C194.871 119.92 193.74 118.978 192.798 117.694C191.876 116.407 191.244 114.889 190.905 113.142C190.519 111.159 190.569 109.265 191.053 107.459C191.538 105.654 192.356 104.15 193.507 102.948C194.675 101.723 196.034 100.959 197.585 100.658C199.038 100.376 200.422 100.524 201.737 101.104C203.071 101.68 204.2 102.612 205.122 103.899C206.065 105.183 206.708 106.709 207.051 108.475C207.44 110.478 207.393 112.382 206.908 114.188C206.42 115.974 205.592 117.479 204.425 118.705C203.273 119.906 201.911 120.66 200.341 120.965ZM199.797 118.168C200.857 117.962 201.764 117.439 202.518 116.6C203.291 115.757 203.827 114.685 204.124 113.384C204.421 112.084 204.423 110.677 204.129 109.166C203.862 107.791 203.395 106.649 202.73 105.74C202.083 104.826 201.328 104.189 200.463 103.827C199.614 103.442 198.777 103.33 197.953 103.49C196.932 103.688 196.056 104.215 195.326 105.07C194.596 105.925 194.093 107.011 193.82 108.327C193.542 109.624 193.552 111.038 193.85 112.57C194.117 113.944 194.562 115.08 195.184 115.978C195.807 116.875 196.522 117.511 197.328 117.884C198.149 118.233 198.972 118.328 199.797 118.168ZM220.092 117.126C218.521 117.431 217.01 117.358 215.557 116.907C214.104 116.456 212.865 115.638 211.84 114.451C210.811 113.246 210.121 111.74 209.77 109.933C209.4 108.029 209.489 106.127 210.036 104.228C210.6 102.305 211.487 100.686 212.698 99.3706C213.925 98.0318 215.285 97.2175 216.777 96.9274C217.405 96.8053 218.043 96.7833 218.69 96.8613C219.356 96.9355 219.963 97.0721 220.511 97.2712C220.701 96.9898 220.973 96.8148 221.326 96.7461C221.719 96.6698 222.069 96.7443 222.378 96.9695C222.683 97.1751 222.872 97.4644 222.944 97.8374L223.31 99.7222C223.387 100.115 223.306 100.487 223.069 100.839C222.851 101.187 222.536 101.401 222.124 101.481C221.731 101.557 221.375 101.504 221.054 101.322C220.753 101.136 220.572 100.886 220.511 100.572L220.471 100.366C219.596 99.7413 218.481 99.5607 217.126 99.824C216.145 100.015 215.261 100.604 214.475 101.592C213.685 102.561 213.122 103.75 212.785 105.16C212.467 106.567 212.444 107.967 212.715 109.361C212.955 110.598 213.42 111.628 214.11 112.452C214.796 113.255 215.609 113.821 216.549 114.147C217.504 114.451 218.502 114.501 219.543 114.299C221.447 113.929 222.859 112.809 223.779 110.939C223.914 110.688 224.062 110.507 224.223 110.394C224.381 110.262 224.578 110.172 224.813 110.127C225.226 110.046 225.596 110.117 225.924 110.339C226.268 110.536 226.484 110.861 226.572 111.313C226.637 111.647 226.606 111.958 226.479 112.248C225.895 113.543 225.044 114.615 223.925 115.464C222.823 116.29 221.545 116.844 220.092 117.126ZM231.653 114.879C231.241 114.959 230.871 114.888 230.542 114.667C230.21 114.426 230.006 114.109 229.93 113.716L226.593 96.5476C226.512 96.1353 226.583 95.765 226.804 95.4367C227.026 95.1085 227.343 94.9042 227.755 94.8241C228.167 94.744 228.547 94.8127 228.895 95.0303C229.243 95.2479 229.457 95.5629 229.537 95.9752L231.026 103.632L241.453 100.046L240.257 93.8915C240.177 93.4792 240.247 93.109 240.469 92.7807C240.71 92.4486 241.036 92.2425 241.449 92.1623C241.841 92.086 242.212 92.1566 242.56 92.3743C242.907 92.5919 243.122 92.9068 243.202 93.3191L246.539 110.488C246.611 110.861 246.529 111.223 246.292 111.575C246.055 111.927 245.74 112.141 245.347 112.217C244.935 112.297 244.555 112.228 244.207 112.011C243.875 111.77 243.67 111.453 243.594 111.06L242.014 102.932L231.587 106.518L232.875 113.144C232.951 113.536 232.871 113.909 232.633 114.26C232.392 114.592 232.066 114.799 231.653 114.879ZM252.671 110.61C252.259 110.69 251.879 110.621 251.531 110.404C251.198 110.163 250.992 109.836 250.912 109.424L247.649 92.6379C247.569 92.2256 247.64 91.8553 247.861 91.5271C248.099 91.1753 248.423 90.9594 248.836 90.8793L260.586 88.5953C260.998 88.5151 261.37 88.5956 261.702 88.8367C262.031 89.0581 262.235 89.3749 262.315 89.7872C262.395 90.1995 262.326 90.5796 262.109 90.9275C261.887 91.2558 261.57 91.46 261.158 91.5402L250.851 93.5436L251.836 98.6088L260.788 96.8687C261.2 96.7885 261.571 96.8592 261.899 97.0806C262.227 97.302 262.431 97.6189 262.512 98.0312C262.592 98.4435 262.523 98.8236 262.305 99.1715C262.084 99.4997 261.767 99.704 261.355 99.7841L252.402 101.524L253.541 107.385L263.79 105.393C264.202 105.312 264.574 105.393 264.906 105.634C265.234 105.855 265.439 106.172 265.519 106.584C265.599 106.997 265.53 107.377 265.313 107.725C265.091 108.053 264.774 108.257 264.362 108.337L252.671 110.61ZM268.861 107.463C268.449 107.543 268.069 107.474 267.721 107.257C267.389 107.016 267.183 106.689 267.102 106.277C267.022 105.864 267.093 105.494 267.314 105.166C267.552 104.814 267.876 104.598 268.289 104.518L270.35 104.117L267.66 90.2764L265.598 90.6771C265.186 90.7572 264.804 90.6787 264.452 90.4414C264.12 90.2004 263.914 89.8737 263.834 89.4614C263.754 89.0491 263.824 88.6788 264.046 88.3506C264.287 88.0185 264.614 87.8123 265.026 87.7322L272.064 86.3641C272.476 86.284 272.847 86.3546 273.175 86.576C273.503 86.7975 273.707 87.1143 273.788 87.5266C273.868 87.9389 273.799 88.319 273.581 88.6669C273.364 89.0148 273.049 89.2288 272.636 89.309L270.605 89.704L273.295 103.545L275.327 103.15C275.759 103.066 276.131 103.146 276.443 103.391C276.772 103.613 276.976 103.93 277.056 104.342C277.136 104.754 277.068 105.134 276.85 105.482C276.628 105.81 276.312 106.015 275.899 106.095L268.861 107.463ZM282.067 105.079C281.694 105.152 281.332 105.069 280.98 104.832C280.628 104.595 280.416 104.29 280.344 103.917L277.036 86.7424C276.959 86.3498 277.022 85.9912 277.224 85.6667C277.442 85.3188 277.757 85.1048 278.169 85.0246C278.404 84.9789 278.642 84.9939 278.881 85.0697C279.116 85.1259 279.321 85.2388 279.496 85.4084L291.307 96.957L288.874 84.4412C288.798 84.0486 288.869 83.6783 289.086 83.3304C289.323 82.9787 289.648 82.7627 290.06 82.6826C290.453 82.6063 290.815 82.6886 291.148 82.9297C291.499 83.1669 291.713 83.4819 291.79 83.8745L295.127 101.043C295.207 101.455 295.136 101.826 294.915 102.154C294.694 102.482 294.377 102.687 293.964 102.767C293.748 102.809 293.511 102.794 293.253 102.722C293.014 102.646 292.807 102.523 292.631 102.354L280.861 90.8581L283.259 103.35C283.339 103.762 283.259 104.135 283.018 104.467C282.796 104.795 282.479 104.999 282.067 105.079ZM185.862 159.435C185.47 159.511 185.099 159.44 184.751 159.223C184.403 159.005 184.189 158.69 184.109 158.278L180.841 141.463C180.734 140.913 180.726 140.507 180.818 140.245C180.906 139.963 181.128 139.746 181.486 139.595C181.86 139.421 182.478 139.249 183.342 139.082C186.994 138.372 189.828 138.381 191.844 139.11C193.88 139.835 195.096 141.218 195.493 143.26C195.813 144.909 195.498 146.376 194.545 147.662C193.593 148.947 192.34 149.995 190.786 150.807C189.233 151.618 187.647 152.211 186.029 152.587L187.025 157.711C187.105 158.124 187.034 158.494 186.813 158.822C186.591 159.15 186.274 159.355 185.862 159.435ZM185.468 149.701C187.369 149.209 189.101 148.475 190.663 147.499C192.222 146.504 192.86 145.279 192.577 143.827C192.367 142.747 191.548 142.04 190.118 141.707C188.708 141.37 186.795 141.436 184.38 141.905L183.968 141.986L185.468 149.701ZM202.11 156.276C201.698 156.357 201.328 156.286 200.999 156.065C200.671 155.843 200.467 155.526 200.387 155.114L197.107 138.24C197.004 137.71 196.978 137.317 197.031 137.063C197.103 136.804 197.288 136.605 197.587 136.466C197.902 136.302 198.412 136.152 199.119 136.015L200.326 135.78C203.625 135.139 206.274 135.195 208.274 135.947C210.275 136.699 211.467 138.066 211.853 140.049C212.341 142.562 211.259 144.749 208.605 146.61C211.007 147.854 213.023 149.53 214.655 151.637C214.792 151.815 214.885 152.031 214.934 152.286C215.011 152.679 214.94 153.049 214.722 153.397C214.521 153.721 214.204 153.926 213.772 154.01C213.222 154.116 212.741 153.945 212.327 153.496C208.934 149.877 206.217 148.266 204.175 148.663C203.567 148.781 202.92 148.968 202.237 149.223L203.273 154.553C203.353 154.965 203.272 155.337 203.031 155.67C202.81 155.998 202.503 156.2 202.11 156.276ZM201.71 146.513C203.803 145.964 205.594 145.167 207.083 144.124C208.571 143.081 209.189 141.912 208.937 140.616C208.72 139.497 207.896 138.771 206.466 138.437C205.056 138.1 203.163 138.163 200.788 138.624L200.199 138.739L201.71 146.513ZM224.433 151.937C222.98 152.22 221.596 152.071 220.281 151.491C218.963 150.892 217.832 149.95 216.89 148.667C215.967 147.379 215.336 145.861 214.996 144.114C214.611 142.131 214.66 140.237 215.145 138.431C215.629 136.626 216.447 135.122 217.599 133.92C218.767 132.695 220.126 131.932 221.677 131.63C223.13 131.348 224.514 131.496 225.828 132.076C227.163 132.652 228.291 133.584 229.214 134.871C230.156 136.155 230.799 137.681 231.143 139.448C231.532 141.45 231.484 143.354 231 145.16C230.512 146.946 229.684 148.451 228.516 149.677C227.364 150.879 226.003 151.632 224.433 151.937ZM223.889 149.14C224.949 148.934 225.856 148.411 226.61 147.572C227.383 146.729 227.918 145.657 228.215 144.356C228.513 143.056 228.514 141.65 228.221 140.138C227.954 138.764 227.487 137.622 226.821 136.712C226.175 135.798 225.42 135.161 224.555 134.799C223.706 134.414 222.869 134.302 222.044 134.462C221.023 134.66 220.148 135.187 219.417 136.042C218.687 136.897 218.185 137.983 217.911 139.3C217.634 140.596 217.644 142.01 217.941 143.542C218.208 144.916 218.653 146.052 219.276 146.95C219.899 147.847 220.613 148.483 221.419 148.856C222.241 149.205 223.064 149.3 223.889 149.14ZM240.562 148.802C239.285 149.05 238.176 149.001 237.232 148.655C236.305 148.285 235.566 147.736 235.017 147.007C234.484 146.255 234.131 145.437 233.96 144.554C233.876 144.122 233.933 143.734 234.131 143.39C234.348 143.042 234.683 142.824 235.134 142.736C235.547 142.656 235.919 142.737 236.251 142.978C236.599 143.195 236.813 143.51 236.893 143.923C237.21 145.552 238.242 146.197 239.989 145.857C240.794 145.701 241.366 145.396 241.706 144.943C242.042 144.47 242.149 143.92 242.027 143.291L239.76 131.63L237.08 132.151C236.668 132.231 236.288 132.162 235.94 131.944C235.588 131.707 235.372 131.382 235.292 130.97C235.216 130.577 235.298 130.215 235.539 129.883C235.776 129.531 236.101 129.315 236.514 129.235L242.138 128.142C242.531 128.065 242.893 128.148 243.225 128.389C243.573 128.607 243.785 128.912 243.862 129.304C243.938 129.697 243.867 130.067 243.65 130.415C243.448 130.74 243.161 130.938 242.788 131.011L242.699 131.028L244.972 142.719C245.258 144.191 245.002 145.494 244.203 146.627C243.425 147.757 242.211 148.482 240.562 148.802ZM251.915 146.412C251.503 146.492 251.123 146.423 250.775 146.206C250.443 145.965 250.237 145.638 250.156 145.226L246.894 128.44C246.813 128.028 246.884 127.657 247.106 127.329C247.343 126.977 247.668 126.761 248.08 126.681L259.83 124.397C260.242 124.317 260.614 124.398 260.946 124.639C261.275 124.86 261.479 125.177 261.559 125.589C261.639 126.001 261.571 126.382 261.353 126.73C261.131 127.058 260.815 127.262 260.402 127.342L250.095 129.346L251.08 134.411L260.032 132.671C260.445 132.591 260.815 132.661 261.143 132.883C261.471 133.104 261.676 133.421 261.756 133.833C261.836 134.245 261.767 134.626 261.55 134.973C261.328 135.302 261.011 135.506 260.599 135.586L251.647 137.326L252.786 143.187L263.034 141.195C263.446 141.114 263.818 141.195 264.15 141.436C264.479 141.657 264.683 141.974 264.763 142.386C264.843 142.799 264.774 143.179 264.557 143.527C264.335 143.855 264.019 144.059 263.606 144.139L251.915 146.412ZM275.502 142.011C273.931 142.316 272.42 142.243 270.967 141.792C269.514 141.341 268.275 140.522 267.25 139.336C266.221 138.13 265.531 136.624 265.18 134.818C264.81 132.914 264.898 131.012 265.446 129.112C266.009 127.189 266.897 125.57 268.108 124.255C269.335 122.916 270.695 122.102 272.187 121.812C272.815 121.69 273.453 121.668 274.099 121.746C274.766 121.82 275.373 121.957 275.921 122.156C276.111 121.874 276.382 121.699 276.736 121.631C277.128 121.554 277.479 121.629 277.788 121.854C278.093 122.06 278.281 122.349 278.354 122.722L278.72 124.607C278.796 124.999 278.716 125.372 278.479 125.723C278.261 126.071 277.946 126.285 277.534 126.365C277.141 126.442 276.785 126.389 276.464 126.207C276.163 126.021 275.982 125.771 275.921 125.456L275.881 125.25C275.006 124.626 273.891 124.445 272.536 124.709C271.554 124.899 270.671 125.489 269.885 126.477C269.095 127.445 268.532 128.635 268.194 130.045C267.877 131.451 267.854 132.852 268.125 134.245C268.365 135.482 268.83 136.513 269.52 137.336C270.206 138.14 271.019 138.705 271.958 139.032C272.914 139.335 273.912 139.386 274.952 139.183C276.857 138.813 278.269 137.693 279.189 135.823C279.324 135.573 279.472 135.391 279.633 135.279C279.791 135.146 279.987 135.057 280.223 135.011C280.635 134.931 281.006 135.002 281.334 135.223C281.678 135.421 281.894 135.746 281.982 136.197C282.047 136.531 282.015 136.843 281.888 137.132C281.305 138.427 280.454 139.5 279.335 140.349C278.232 141.174 276.955 141.728 275.502 142.011ZM291.127 138.973C290.734 139.05 290.364 138.979 290.016 138.761C289.664 138.524 289.45 138.209 289.374 137.817L286.357 122.297L281.734 123.196C281.341 123.272 280.969 123.192 280.617 122.954C280.285 122.713 280.081 122.396 280.005 122.004C279.925 121.591 279.995 121.221 280.217 120.893C280.458 120.561 280.775 120.357 281.167 120.28L293.359 117.91C293.771 117.83 294.142 117.901 294.47 118.122C294.798 118.344 295.002 118.661 295.082 119.073C295.163 119.485 295.094 119.865 294.876 120.213C294.655 120.542 294.338 120.746 293.926 120.826L289.273 121.73L292.289 137.25C292.366 137.642 292.285 138.015 292.048 138.366C291.827 138.695 291.52 138.897 291.127 138.973Z" fill="#1C1B21"/>
</svg>
