<svg xmlns="http://www.w3.org/2000/svg" width="374" height="188" viewBox="0 0 374 188" fill="none">
    <path d="M101.607 177.488C100.369 170.466 116.496 161.464 139.902 155.142C115.745 157.206 97.511 154.257 96.274 147.242L96.2116 146.888C94.9735 139.866 111.101 130.865 134.506 124.543C110.349 126.601 92.1144 123.652 90.8763 116.63L90.8139 116.276C89.3274 107.846 112.876 96.554 144.009 90.4795C144.303 90.4024 144.623 90.3334 144.945 90.2766L299.406 63.0411C299.728 62.9843 300.052 62.9397 300.355 62.9114C331.711 57.9676 357.678 60.528 359.165 68.9587L359.227 69.3125C360.465 76.3341 344.338 85.3357 320.933 91.6579C345.112 89.5897 363.323 92.5428 364.56 99.5582L364.623 99.9121C365.861 106.934 349.734 115.935 326.329 122.264C350.509 120.195 368.72 123.148 369.957 130.164L370.019 130.518C371.571 139.314 345.856 151.233 312.668 157.085L164.647 183.185C131.462 189.049 103.222 186.644 101.671 177.847L101.607 177.488Z" fill="#EDE2FF"/>
    <path d="M2 2C43.3361 2 75.288 32.1431 78.033 60.935C79.2006 73.1827 78.2574 82.5085 59.6593 86.118C48.0407 88.3729 36.8132 90.6338 36.8132 79.9097C36.8132 69.5473 39.3032 61.7846 53.011 57.0877C75.4735 49.3909 98.7939 46.2496 123.604 46.0701C144.001 45.9226 162.406 45.3516 179.934 54.2896C186.466 57.6203 199.396 66.3497 202 72" stroke="#EDE2FF" stroke-width="3" stroke-linecap="round"/>
    <path d="M147.538 131.29C146.909 131.412 146.443 131.371 146.138 131.165C145.833 130.959 145.625 130.572 145.515 130.003L142.229 113.099C142.153 112.706 142.235 112.344 142.476 112.012C142.713 111.66 143.018 111.448 143.391 111.376L148.398 110.402C149.811 110.128 151.066 110.138 152.163 110.435C153.276 110.707 154.165 111.196 154.832 111.902C155.495 112.588 155.917 113.393 156.096 114.315C156.382 115.788 156.169 117.103 155.457 118.26C156.55 118.536 157.418 119.02 158.061 119.71C158.701 120.38 159.131 121.284 159.353 122.423C159.75 124.465 158.965 126.247 157 127.77C155.03 129.274 151.876 130.447 147.538 131.29ZM150.95 118.188C151.755 118.032 152.36 117.629 152.763 116.98C153.183 116.308 153.324 115.618 153.186 114.912C153.053 114.224 152.608 113.72 151.853 113.398C151.113 113.053 150.145 112.997 148.947 113.229L145.443 113.911L146.445 119.064L150.95 118.188ZM148.231 128.252C150.834 127.705 152.903 126.977 154.438 126.068C155.992 125.154 156.659 124.128 156.437 122.99C156.273 122.145 155.759 121.543 154.894 121.181C154.025 120.8 152.894 120.745 151.5 121.015L146.994 121.891L148.231 128.252ZM165.258 127.754C164.889 127.846 164.529 127.774 164.177 127.536C163.825 127.299 163.613 126.994 163.541 126.621L160.203 109.452C160.127 109.06 160.199 108.699 160.421 108.371C160.658 108.019 160.983 107.803 161.395 107.723C161.788 107.647 162.15 107.729 162.482 107.97C162.83 108.188 163.042 108.493 163.119 108.886L166.153 124.494L174.06 122.406C174.468 122.307 174.836 122.367 175.165 122.589C175.489 122.791 175.693 123.108 175.777 123.539C175.846 123.893 175.773 124.253 175.56 124.621C175.362 124.965 175.088 125.181 174.738 125.27L165.258 127.754ZM184.394 124.065C182.941 124.347 181.558 124.199 180.243 123.619C178.924 123.019 177.794 122.078 176.852 120.794C175.929 119.506 175.298 117.989 174.958 116.242C174.573 114.259 174.622 112.365 175.107 110.559C175.591 108.753 176.409 107.25 177.561 106.048C178.728 104.823 180.088 104.059 181.639 103.758C183.092 103.475 184.475 103.624 185.79 104.204C187.125 104.78 188.253 105.711 189.176 106.999C190.118 108.283 190.761 109.808 191.104 111.575C191.494 113.578 191.446 115.482 190.962 117.287C190.473 119.073 189.646 120.579 188.478 121.804C187.326 123.006 185.965 123.76 184.394 124.065ZM183.85 121.267C184.911 121.061 185.818 120.539 186.571 119.699C187.345 118.856 187.88 117.784 188.177 116.484C188.474 115.183 188.476 113.777 188.182 112.265C187.915 110.891 187.449 109.749 186.783 108.839C186.137 107.926 185.381 107.288 184.516 106.927C183.667 106.542 182.83 106.429 182.006 106.59C180.985 106.788 180.109 107.315 179.379 108.17C178.649 109.025 178.147 110.111 177.873 111.427C177.595 112.724 177.605 114.138 177.903 115.669C178.17 117.044 178.615 118.18 179.238 119.077C179.861 119.975 180.575 120.61 181.381 120.983C182.203 121.333 183.026 121.428 183.85 121.267ZM204.145 120.226C202.575 120.531 201.063 120.458 199.61 120.007C198.158 119.556 196.919 118.737 195.893 117.551C194.864 116.345 194.174 114.839 193.823 113.033C193.453 111.129 193.542 109.227 194.09 107.327C194.653 105.405 195.54 103.786 196.752 102.47C197.979 101.132 199.338 100.317 200.83 100.027C201.459 99.905 202.096 99.883 202.743 99.961C203.409 100.035 204.017 100.172 204.565 100.371C204.754 100.09 205.026 99.9145 205.379 99.8458C205.772 99.7695 206.123 99.844 206.431 100.069C206.736 100.275 206.925 100.564 206.997 100.937L207.364 102.822C207.44 103.215 207.36 103.587 207.122 103.938C206.905 104.286 206.59 104.5 206.177 104.581C205.785 104.657 205.428 104.604 205.108 104.422C204.807 104.236 204.625 103.986 204.564 103.672L204.524 103.465C203.649 102.841 202.534 102.66 201.18 102.924C200.198 103.115 199.314 103.704 198.528 104.692C197.739 105.661 197.175 106.85 196.838 108.26C196.521 109.667 196.497 111.067 196.768 112.461C197.009 113.698 197.474 114.728 198.164 115.551C198.85 116.355 199.662 116.92 200.602 117.247C201.557 117.55 202.555 117.601 203.596 117.399C205.5 117.028 206.912 115.908 207.833 114.039C207.967 113.788 208.115 113.607 208.277 113.494C208.434 113.361 208.631 113.272 208.867 113.226C209.279 113.146 209.649 113.217 209.977 113.438C210.322 113.636 210.537 113.961 210.625 114.413C210.69 114.746 210.659 115.058 210.532 115.347C209.948 116.643 209.097 117.715 207.979 118.564C206.876 119.389 205.598 119.943 204.145 120.226ZM226.667 115.878C226.334 115.943 226.02 115.902 225.727 115.756L215.787 110.689L216.869 116.255C216.942 116.628 216.859 116.99 216.622 117.342C216.404 117.69 216.099 117.902 215.707 117.978C215.314 118.055 214.944 117.984 214.596 117.767C214.264 117.525 214.059 117.209 213.983 116.816L210.646 99.6473C210.566 99.235 210.636 98.8647 210.858 98.5365C211.099 98.2044 211.416 98.0001 211.808 97.9238C212.201 97.8475 212.561 97.92 212.89 98.1415C213.238 98.3591 213.452 98.674 213.532 99.0863L214.654 104.858L221.354 96.4045C221.583 96.1155 221.874 95.9367 222.228 95.868C222.601 95.7955 222.955 95.8896 223.291 96.1503C223.643 96.3875 223.855 96.6926 223.927 97.0657C224.011 97.4976 223.915 97.8932 223.638 98.2526L216.227 107.609L227.047 113.115C227.477 113.337 227.738 113.684 227.83 114.155C227.91 114.567 227.829 114.939 227.588 115.272C227.367 115.6 227.06 115.802 226.667 115.878ZM237.247 113.792C235.676 114.097 234.164 114.024 232.712 113.573C231.259 113.122 230.02 112.303 228.995 111.117C227.966 109.911 227.276 108.405 226.925 106.599C226.554 104.695 226.643 102.793 227.191 100.893C227.754 98.9704 228.642 97.3514 229.853 96.0361C231.08 94.6974 232.44 93.883 233.932 93.5929C234.56 93.4708 235.197 93.4488 235.844 93.5268C236.511 93.601 237.118 93.7376 237.666 93.9367C237.856 93.6553 238.127 93.4803 238.481 93.4116C238.873 93.3353 239.224 93.4098 239.533 93.635C239.837 93.8406 240.026 94.1299 240.099 94.5029L240.465 96.3877C240.541 96.7803 240.461 97.1525 240.224 97.5042C240.006 97.8522 239.691 98.0662 239.279 98.1463C238.886 98.2227 238.529 98.1697 238.209 97.9876C237.908 97.8016 237.727 97.5515 237.666 97.2374L237.626 97.0313C236.75 96.4068 235.635 96.2262 234.281 96.4895C233.299 96.6804 232.415 97.2698 231.629 98.2579C230.84 99.2264 230.276 100.416 229.939 101.826C229.622 103.232 229.598 104.633 229.869 106.026C230.11 107.263 230.575 108.294 231.265 109.117C231.951 109.921 232.764 110.486 233.703 110.813C234.659 111.116 235.657 111.167 236.697 110.964C238.601 110.594 240.014 109.474 240.934 107.604C241.068 107.354 241.217 107.172 241.378 107.06C241.536 106.927 241.732 106.838 241.968 106.792C242.38 106.712 242.75 106.783 243.079 107.004C243.423 107.202 243.639 107.527 243.726 107.978C243.791 108.312 243.76 108.624 243.633 108.913C243.049 110.208 242.198 111.281 241.08 112.13C239.977 112.955 238.699 113.509 237.247 113.792ZM248.808 111.544C248.395 111.624 248.025 111.554 247.697 111.332C247.365 111.091 247.161 110.774 247.084 110.382L243.747 93.2131C243.667 92.8008 243.738 92.4305 243.959 92.1022C244.18 91.774 244.497 91.5697 244.91 91.4896C245.322 91.4095 245.702 91.4782 246.05 91.6958C246.398 91.9134 246.612 92.2284 246.692 92.6407L248.18 100.297L258.608 96.7118L257.411 90.557C257.331 90.1447 257.402 89.7745 257.623 89.4462C257.864 89.1141 258.191 88.908 258.603 88.8278C258.996 88.7515 259.366 88.8221 259.714 89.0398C260.062 89.2574 260.276 89.5723 260.356 89.9846L263.693 107.153C263.766 107.526 263.684 107.889 263.446 108.24C263.209 108.592 262.894 108.806 262.501 108.882C262.089 108.963 261.709 108.894 261.361 108.676C261.029 108.435 260.825 108.118 260.749 107.726L259.169 99.5978L248.741 103.183L250.029 109.809C250.105 110.202 250.025 110.574 249.788 110.926C249.547 111.258 249.22 111.464 248.808 111.544ZM280.732 105.369C280.025 105.507 279.499 105.263 279.153 104.637L275.842 98.9239L270.092 101.417L269.117 106.619C269.053 106.916 268.92 107.176 268.719 107.399C268.537 107.618 268.279 107.759 267.946 107.824C267.553 107.901 267.183 107.83 266.835 107.612C266.487 107.395 266.277 107.099 266.204 106.726C266.154 106.471 266.166 106.163 266.239 105.803L266.844 102.629C266.719 102.613 266.623 102.591 266.556 102.563C265.996 102.407 265.657 102.024 265.539 101.416C265.47 101.062 265.509 100.739 265.656 100.446C265.822 100.148 266.064 99.9281 266.383 99.7847L267.427 99.3373L269.633 87.4174C269.693 87.1 269.836 86.838 270.061 86.6313C270.285 86.4246 270.545 86.2927 270.839 86.2354C271.154 86.1744 271.444 86.1995 271.71 86.3107C271.976 86.422 272.2 86.6331 272.383 86.9439L281.546 102.797C281.573 102.832 281.636 102.942 281.733 103.127C281.826 103.292 281.892 103.473 281.93 103.67C282.002 104.043 281.93 104.403 281.712 104.751C281.491 105.079 281.164 105.285 280.732 105.369ZM274.338 96.3741L271.826 91.9419L270.7 97.9371L274.338 96.3741ZM284.808 104.363C284.395 104.443 284.015 104.375 283.667 104.157C283.335 103.916 283.129 103.589 283.049 103.177C282.969 102.765 283.04 102.394 283.261 102.066C283.498 101.714 283.823 101.498 284.235 101.418L286.297 101.018L283.606 87.1767L281.545 87.5774C281.133 87.6575 280.751 87.579 280.399 87.3417C280.067 87.1006 279.861 86.774 279.781 86.3617C279.7 85.9494 279.771 85.5791 279.992 85.2508C280.233 84.9187 280.56 84.7126 280.972 84.6325L288.011 83.2644C288.423 83.1842 288.793 83.2549 289.122 83.4763C289.45 83.6978 289.654 84.0146 289.734 84.4269C289.814 84.8392 289.746 85.2193 289.528 85.5672C289.31 85.9151 288.995 86.1291 288.583 86.2093L286.551 86.6042L289.242 100.445L291.274 100.05C291.705 99.9663 292.078 100.047 292.39 100.292C292.718 100.513 292.923 100.83 293.003 101.242C293.083 101.654 293.014 102.035 292.797 102.382C292.575 102.711 292.258 102.915 291.846 102.995L284.808 104.363ZM298.014 101.98C297.641 102.052 297.278 101.97 296.927 101.732C296.575 101.495 296.363 101.19 296.29 100.817L292.982 83.6427C292.906 83.25 292.969 82.8915 293.171 82.567C293.388 82.2191 293.703 82.0051 294.116 81.9249C294.351 81.8791 294.588 81.8941 294.827 81.97C295.062 82.0261 295.268 82.139 295.443 82.3087L307.254 93.8573L304.821 81.3415C304.745 80.9489 304.815 80.5786 305.033 80.2307C305.27 79.879 305.595 79.663 306.007 79.5829C306.4 79.5066 306.762 79.5889 307.094 79.83C307.446 80.0672 307.66 80.3822 307.736 80.7748L311.074 97.9435C311.154 98.3558 311.083 98.7261 310.862 99.0543C310.64 99.3826 310.323 99.5868 309.911 99.667C309.695 99.7089 309.458 99.6939 309.199 99.6219C308.961 99.5461 308.753 99.4234 308.578 99.2538L296.808 87.7583L299.206 100.25C299.286 100.663 299.205 101.035 298.964 101.367C298.743 101.695 298.426 101.899 298.014 101.98ZM185.862 159.435C185.47 159.511 185.099 159.44 184.751 159.223C184.403 159.005 184.189 158.69 184.109 158.278L180.841 141.463C180.734 140.913 180.726 140.507 180.818 140.245C180.906 139.963 181.128 139.746 181.486 139.595C181.86 139.421 182.478 139.249 183.342 139.082C186.994 138.372 189.828 138.381 191.844 139.11C193.88 139.835 195.096 141.218 195.493 143.26C195.813 144.909 195.498 146.376 194.545 147.662C193.593 148.947 192.34 149.995 190.786 150.807C189.233 151.618 187.647 152.211 186.029 152.587L187.025 157.711C187.105 158.124 187.034 158.494 186.813 158.822C186.591 159.15 186.274 159.355 185.862 159.435ZM185.468 149.701C187.369 149.209 189.101 148.475 190.663 147.499C192.222 146.504 192.86 145.279 192.577 143.827C192.367 142.747 191.548 142.04 190.118 141.707C188.708 141.37 186.795 141.436 184.38 141.905L183.968 141.986L185.468 149.701ZM202.11 156.276C201.698 156.357 201.328 156.286 200.999 156.065C200.671 155.843 200.467 155.526 200.387 155.114L197.107 138.24C197.004 137.71 196.978 137.317 197.031 137.063C197.103 136.804 197.288 136.605 197.587 136.466C197.902 136.302 198.412 136.152 199.119 136.015L200.326 135.78C203.625 135.139 206.274 135.195 208.274 135.947C210.275 136.699 211.467 138.066 211.853 140.049C212.341 142.562 211.259 144.749 208.605 146.61C211.007 147.854 213.023 149.53 214.655 151.637C214.792 151.815 214.885 152.031 214.934 152.286C215.011 152.679 214.94 153.049 214.722 153.397C214.521 153.721 214.204 153.926 213.772 154.01C213.222 154.116 212.741 153.945 212.327 153.496C208.934 149.877 206.217 148.266 204.175 148.663C203.567 148.781 202.92 148.968 202.237 149.223L203.273 154.553C203.353 154.965 203.272 155.337 203.031 155.67C202.81 155.998 202.503 156.2 202.11 156.276ZM201.71 146.513C203.803 145.964 205.594 145.167 207.083 144.124C208.571 143.081 209.189 141.912 208.937 140.616C208.72 139.497 207.896 138.771 206.466 138.437C205.056 138.1 203.163 138.163 200.788 138.624L200.199 138.739L201.71 146.513ZM224.433 151.937C222.98 152.22 221.596 152.071 220.281 151.491C218.963 150.892 217.832 149.95 216.89 148.667C215.967 147.379 215.336 145.861 214.996 144.114C214.611 142.131 214.66 140.237 215.145 138.431C215.629 136.626 216.447 135.122 217.599 133.92C218.767 132.695 220.126 131.932 221.677 131.63C223.13 131.348 224.514 131.496 225.828 132.076C227.163 132.652 228.291 133.584 229.214 134.871C230.156 136.155 230.799 137.681 231.143 139.448C231.532 141.45 231.484 143.354 231 145.16C230.512 146.946 229.684 148.451 228.516 149.677C227.364 150.879 226.003 151.632 224.433 151.937ZM223.889 149.14C224.949 148.934 225.856 148.411 226.61 147.572C227.383 146.729 227.918 145.657 228.215 144.356C228.513 143.056 228.514 141.65 228.221 140.138C227.954 138.764 227.487 137.622 226.821 136.712C226.175 135.798 225.42 135.161 224.555 134.799C223.706 134.414 222.869 134.302 222.044 134.462C221.023 134.66 220.148 135.187 219.417 136.042C218.687 136.897 218.185 137.983 217.911 139.3C217.634 140.596 217.644 142.01 217.941 143.542C218.208 144.916 218.653 146.052 219.276 146.95C219.899 147.847 220.613 148.483 221.419 148.856C222.241 149.205 223.064 149.3 223.889 149.14ZM240.562 148.802C239.285 149.05 238.176 149.001 237.232 148.655C236.305 148.285 235.566 147.736 235.017 147.007C234.484 146.255 234.131 145.437 233.96 144.554C233.876 144.122 233.933 143.734 234.131 143.39C234.348 143.042 234.683 142.824 235.134 142.736C235.547 142.656 235.919 142.737 236.251 142.978C236.599 143.195 236.813 143.51 236.893 143.923C237.21 145.552 238.242 146.197 239.989 145.857C240.794 145.701 241.366 145.396 241.706 144.943C242.042 144.47 242.149 143.92 242.027 143.291L239.76 131.63L237.08 132.151C236.668 132.231 236.288 132.162 235.94 131.944C235.588 131.707 235.372 131.382 235.292 130.97C235.216 130.577 235.298 130.215 235.539 129.883C235.776 129.531 236.101 129.315 236.514 129.235L242.138 128.142C242.531 128.065 242.893 128.148 243.225 128.389C243.573 128.607 243.785 128.912 243.862 129.304C243.938 129.697 243.867 130.067 243.65 130.415C243.448 130.74 243.161 130.938 242.788 131.011L242.699 131.028L244.972 142.719C245.258 144.191 245.002 145.494 244.203 146.627C243.425 147.757 242.211 148.482 240.562 148.802ZM251.915 146.412C251.503 146.492 251.123 146.423 250.775 146.206C250.443 145.965 250.237 145.638 250.156 145.226L246.894 128.44C246.813 128.028 246.884 127.657 247.106 127.329C247.343 126.977 247.668 126.761 248.08 126.681L259.83 124.397C260.242 124.317 260.614 124.398 260.946 124.639C261.275 124.86 261.479 125.177 261.559 125.589C261.639 126.001 261.571 126.382 261.353 126.73C261.131 127.058 260.815 127.262 260.402 127.342L250.095 129.346L251.08 134.411L260.032 132.671C260.445 132.591 260.815 132.661 261.143 132.883C261.471 133.104 261.676 133.421 261.756 133.833C261.836 134.245 261.767 134.626 261.55 134.973C261.328 135.302 261.011 135.506 260.599 135.586L251.647 137.326L252.786 143.187L263.034 141.195C263.446 141.114 263.818 141.195 264.15 141.436C264.479 141.657 264.683 141.974 264.763 142.386C264.843 142.799 264.774 143.179 264.557 143.527C264.335 143.855 264.019 144.059 263.606 144.139L251.915 146.412ZM275.502 142.011C273.931 142.316 272.42 142.243 270.967 141.792C269.514 141.341 268.275 140.522 267.25 139.336C266.221 138.13 265.531 136.624 265.18 134.818C264.81 132.914 264.898 131.012 265.446 129.112C266.009 127.189 266.897 125.57 268.108 124.255C269.335 122.916 270.695 122.102 272.187 121.812C272.815 121.69 273.453 121.668 274.099 121.746C274.766 121.82 275.373 121.957 275.921 122.156C276.111 121.874 276.382 121.699 276.736 121.631C277.128 121.554 277.479 121.629 277.788 121.854C278.093 122.06 278.281 122.349 278.354 122.722L278.72 124.607C278.796 124.999 278.716 125.372 278.479 125.723C278.261 126.071 277.946 126.285 277.534 126.365C277.141 126.442 276.785 126.389 276.464 126.207C276.163 126.021 275.982 125.771 275.921 125.456L275.881 125.25C275.006 124.626 273.891 124.445 272.536 124.709C271.554 124.899 270.671 125.489 269.885 126.477C269.095 127.445 268.532 128.635 268.194 130.045C267.877 131.451 267.854 132.852 268.125 134.245C268.365 135.482 268.83 136.513 269.52 137.336C270.206 138.14 271.019 138.705 271.958 139.032C272.914 139.335 273.912 139.386 274.952 139.183C276.857 138.813 278.269 137.693 279.189 135.823C279.324 135.573 279.472 135.391 279.633 135.279C279.791 135.146 279.987 135.057 280.223 135.011C280.635 134.931 281.006 135.002 281.334 135.223C281.678 135.421 281.894 135.746 281.982 136.197C282.047 136.531 282.015 136.843 281.888 137.132C281.305 138.427 280.454 139.5 279.335 140.349C278.232 141.174 276.955 141.728 275.502 142.011ZM291.127 138.973C290.734 139.05 290.364 138.979 290.016 138.761C289.664 138.524 289.45 138.209 289.374 137.817L286.357 122.297L281.734 123.196C281.341 123.272 280.969 123.192 280.617 122.954C280.285 122.713 280.081 122.396 280.005 122.004C279.925 121.591 279.995 121.221 280.217 120.893C280.458 120.561 280.775 120.357 281.167 120.28L293.359 117.91C293.771 117.83 294.142 117.901 294.47 118.122C294.798 118.344 295.002 118.661 295.082 119.073C295.163 119.485 295.094 119.865 294.876 120.213C294.655 120.542 294.338 120.746 293.926 120.826L289.273 121.73L292.289 137.25C292.366 137.642 292.285 138.015 292.048 138.366C291.827 138.695 291.52 138.897 291.127 138.973Z" fill="#1C1B21"/>
</svg>