<svg xmlns="http://www.w3.org/2000/svg" width="371" height="194" viewBox="0 0 371 194" fill="none">
    <path d="M2 5.11641C5.9953 5.64755 7.25065 14.7006 9.5 18.5C15.2939 28.2866 19.3807 39.8887 27.2838 47.7141C41.3797 61.6714 69.2434 66.3752 86.488 56.4999C101.314 48.0095 119.157 34.6414 119.157 14.7009C119.157 3.41525 104.173 0.256202 95.6252 2.85341C84.557 6.21661 91.6548 28.5623 94.3735 35.0679C98.4905 44.9196 113.995 51.8964 123.663 53.0388C138.56 54.7992 182.04 62.1322 189.5 78" stroke="#A8E5F8" stroke-width="3" stroke-linecap="round"/>
    <path d="M98.6071 184.488C97.369 177.466 113.496 168.464 136.902 162.142C112.745 164.206 94.511 161.257 93.274 154.242L93.2116 153.888C91.9735 146.866 108.101 137.865 131.506 131.543C107.349 133.601 89.1144 130.652 87.8763 123.63L87.8139 123.276C86.3274 114.846 109.876 103.554 141.009 97.4795C141.303 97.4024 141.623 97.3334 141.945 97.2766L296.406 70.0411C296.728 69.9843 297.052 69.9397 297.355 69.9114C328.711 64.9676 354.678 67.528 356.165 75.9587L356.227 76.3125C357.465 83.3341 341.338 92.3357 317.933 98.6579C342.112 96.5897 360.323 99.5428 361.56 106.558L361.623 106.912C362.861 113.934 346.734 122.935 323.329 129.264C347.509 127.195 365.72 130.148 366.957 137.164L367.019 137.518C368.571 146.314 342.856 158.233 309.668 164.085L161.647 190.185C128.462 196.049 100.222 193.644 98.6706 184.847L98.6071 184.488Z" fill="#A8E5F8"/>
    <path d="M206.281 125.9C204.71 126.205 203.198 126.132 201.745 125.681C200.293 125.23 199.054 124.411 198.029 123.225C197 122.019 196.31 120.513 195.958 118.707C195.588 116.803 195.677 114.901 196.225 113.001C196.788 111.079 197.676 109.46 198.887 108.144C200.114 106.806 201.473 105.991 202.966 105.701C203.594 105.579 204.231 105.557 204.878 105.635C205.544 105.709 206.152 105.846 206.7 106.045C206.89 105.764 207.161 105.589 207.515 105.52C207.907 105.444 208.258 105.518 208.566 105.743C208.871 105.949 209.06 106.238 209.132 106.611L209.499 108.496C209.575 108.889 209.495 109.261 209.257 109.612C209.04 109.96 208.725 110.174 208.313 110.255C207.92 110.331 207.563 110.278 207.243 110.096C206.942 109.91 206.761 109.66 206.7 109.346L206.659 109.139C205.784 108.515 204.669 108.334 203.315 108.598C202.333 108.789 201.449 109.378 200.663 110.366C199.874 111.335 199.31 112.524 198.973 113.934C198.656 115.341 198.632 116.741 198.903 118.135C199.144 119.372 199.609 120.402 200.299 121.225C200.985 122.029 201.797 122.594 202.737 122.921C203.693 123.224 204.69 123.275 205.731 123.073C207.635 122.702 209.048 121.582 209.968 119.713C210.102 119.462 210.25 119.281 210.412 119.168C210.57 119.035 210.766 118.946 211.002 118.9C211.414 118.82 211.784 118.891 212.113 119.112C212.457 119.31 212.673 119.635 212.76 120.087C212.825 120.42 212.794 120.732 212.667 121.021C212.083 122.317 211.232 123.389 210.114 124.238C209.011 125.063 207.733 125.617 206.281 125.9ZM216.399 123.933C215.967 124.017 215.598 123.956 215.294 123.75C215.008 123.541 214.835 123.279 214.774 122.965C214.713 122.651 214.689 122.319 214.703 121.97L215.109 104.563C215.119 104.194 215.232 103.887 215.449 103.641C215.663 103.376 215.956 103.207 216.329 103.134C217.016 103.001 217.532 103.247 217.878 103.872L224.566 116.111L226.731 102.09C226.844 101.416 227.274 101.007 228.02 100.862C228.354 100.797 228.65 100.851 228.908 101.025C229.181 101.176 229.392 101.42 229.539 101.758L236.519 117.699C236.705 118.132 236.811 118.417 236.838 118.554C236.91 118.927 236.836 119.278 236.615 119.606C236.389 119.915 236.071 120.109 235.658 120.189C235.266 120.266 234.932 120.228 234.659 120.078C234.381 119.908 234.171 119.663 234.027 119.345L228.925 107.562L226.817 120.93C226.776 121.243 226.645 121.513 226.424 121.74C226.2 121.946 225.93 122.08 225.616 122.141C224.929 122.275 224.413 122.029 224.067 121.403L217.909 110.162L217.618 122.504C217.609 122.873 217.497 123.19 217.284 123.455C217.067 123.701 216.772 123.86 216.399 123.933ZM245.867 118.205C244.179 118.533 242.634 118.446 241.232 117.944C239.85 117.439 238.799 116.696 238.079 115.715C237.771 115.286 237.589 114.924 237.532 114.63C237.452 114.217 237.532 113.845 237.773 113.513C238.01 113.161 238.335 112.945 238.747 112.865C239.101 112.797 239.424 112.836 239.718 112.982C240.011 113.129 240.249 113.358 240.432 113.669C240.91 114.452 241.615 114.987 242.547 115.275C243.479 115.562 244.426 115.612 245.388 115.425C246.605 115.189 247.551 114.709 248.226 113.987C248.916 113.242 249.179 112.447 249.015 111.603C248.889 110.955 248.451 110.429 247.7 110.025C246.969 109.617 245.795 109.346 244.18 109.212C242.09 109.047 240.392 108.644 239.086 108.001C237.775 107.339 236.971 106.243 236.673 104.711C236.471 103.671 236.567 102.695 236.96 101.783C237.369 100.847 238.05 100.053 239.003 99.3992C239.955 98.7453 241.129 98.283 242.523 98.012C244.525 97.6228 246.172 97.7101 247.463 98.2741C248.774 98.8342 249.558 99.772 249.813 101.087C249.897 101.519 249.831 101.909 249.613 102.257C249.395 102.605 249.08 102.819 248.668 102.899C248.315 102.968 247.988 102.909 247.687 102.723C247.385 102.537 247.181 102.271 247.073 101.926C246.888 101.391 246.437 101.01 245.72 100.783C245 100.536 244.109 100.515 243.049 100.721C241.734 100.977 240.777 101.397 240.177 101.983C239.574 102.548 239.345 103.204 239.49 103.95C239.624 104.637 240.089 105.147 240.888 105.481C241.686 105.815 242.936 106.061 244.638 106.219C246.731 106.403 248.382 106.877 249.59 107.64C250.798 108.404 251.539 109.493 251.814 110.906C252.027 112.006 251.898 113.07 251.426 114.099C250.953 115.128 250.219 116.014 249.223 116.758C248.242 117.478 247.124 117.961 245.867 118.205ZM177.27 167.194C176.878 167.27 176.507 167.199 176.159 166.982C175.812 166.764 175.598 166.449 175.517 166.037L172.249 149.222C172.142 148.672 172.134 148.266 172.226 148.004C172.314 147.722 172.537 147.505 172.894 147.354C173.268 147.18 173.887 147.009 174.75 146.841C178.402 146.131 181.236 146.14 183.252 146.869C185.288 147.594 186.504 148.977 186.901 151.019C187.222 152.668 186.906 154.135 185.953 155.421C185.001 156.706 183.748 157.754 182.194 158.566C180.641 159.377 179.055 159.971 177.437 160.346L178.433 165.47C178.513 165.883 178.442 166.253 178.221 166.581C177.999 166.909 177.683 167.114 177.27 167.194ZM176.876 157.46C178.777 156.968 180.509 156.235 182.071 155.258C183.63 154.263 184.268 153.039 183.986 151.586C183.776 150.506 182.956 149.799 181.526 149.466C180.116 149.129 178.203 149.195 175.788 149.665L175.376 149.745L176.876 157.46ZM193.518 164.036C193.106 164.116 192.736 164.045 192.407 163.824C192.079 163.602 191.875 163.285 191.795 162.873L188.515 145.999C188.412 145.469 188.386 145.076 188.439 144.822C188.511 144.563 188.696 144.364 188.995 144.225C189.31 144.062 189.82 143.911 190.527 143.774L191.735 143.539C195.033 142.898 197.682 142.954 199.682 143.706C201.683 144.458 202.876 145.826 203.261 147.808C203.749 150.321 202.667 152.508 200.013 154.369C202.415 155.613 204.432 157.289 206.064 159.397C206.2 159.574 206.293 159.79 206.342 160.045C206.419 160.438 206.348 160.808 206.131 161.156C205.929 161.481 205.612 161.685 205.18 161.769C204.63 161.876 204.149 161.704 203.735 161.255C200.343 157.636 197.625 156.025 195.583 156.422C194.975 156.54 194.329 156.727 193.645 156.982L194.681 162.312C194.761 162.724 194.68 163.097 194.439 163.429C194.218 163.757 193.911 163.959 193.518 164.036ZM193.118 154.273C195.212 153.723 197.003 152.927 198.491 151.883C199.979 150.84 200.597 149.671 200.346 148.375C200.128 147.256 199.304 146.53 197.874 146.197C196.464 145.859 194.571 145.922 192.196 146.384L191.607 146.498L193.118 154.273ZM215.841 159.697C214.388 159.979 213.004 159.83 211.689 159.25C210.371 158.651 209.24 157.709 208.298 156.426C207.375 155.138 206.744 153.621 206.405 151.873C206.019 149.89 206.069 147.996 206.553 146.191C207.037 144.385 207.855 142.881 209.007 141.679C210.175 140.454 211.534 139.691 213.085 139.389C214.538 139.107 215.922 139.255 217.237 139.835C218.571 140.411 219.7 141.343 220.622 142.631C221.564 143.914 222.207 145.44 222.551 147.207C222.94 149.209 222.892 151.113 222.408 152.919C221.92 154.705 221.092 156.21 219.924 157.436C218.773 158.638 217.411 159.391 215.841 159.697ZM215.297 156.899C216.357 156.693 217.264 156.17 218.018 155.331C218.791 154.488 219.326 153.416 219.624 152.115C219.921 150.815 219.923 149.409 219.629 147.897C219.362 146.523 218.895 145.381 218.229 144.471C217.583 143.557 216.828 142.92 215.963 142.558C215.114 142.173 214.277 142.061 213.452 142.221C212.431 142.42 211.556 142.946 210.826 143.801C210.095 144.656 209.593 145.742 209.319 147.059C209.042 148.355 209.052 149.769 209.349 151.301C209.617 152.675 210.062 153.811 210.684 154.709C211.307 155.606 212.021 156.242 212.827 156.615C213.649 156.964 214.472 157.059 215.297 156.899ZM231.97 156.561C230.694 156.809 229.584 156.76 228.64 156.414C227.713 156.044 226.974 155.495 226.425 154.766C225.892 154.014 225.539 153.196 225.368 152.313C225.284 151.881 225.341 151.493 225.539 151.149C225.756 150.801 226.091 150.583 226.543 150.495C226.955 150.415 227.327 150.496 227.659 150.737C228.007 150.954 228.221 151.269 228.301 151.682C228.618 153.311 229.65 153.956 231.397 153.616C232.202 153.46 232.775 153.155 233.114 152.702C233.45 152.229 233.557 151.679 233.435 151.05L231.168 139.389L228.488 139.91C228.076 139.99 227.696 139.921 227.348 139.703C226.996 139.466 226.78 139.141 226.7 138.729C226.624 138.337 226.706 137.974 226.947 137.642C227.185 137.29 227.509 137.074 227.922 136.994L233.546 135.901C233.939 135.825 234.301 135.907 234.634 136.148C234.981 136.366 235.194 136.671 235.27 137.063C235.346 137.456 235.276 137.826 235.058 138.174C234.856 138.499 234.569 138.697 234.196 138.77L234.107 138.787L236.38 150.478C236.666 151.95 236.41 153.253 235.612 154.386C234.833 155.516 233.619 156.241 231.97 156.561ZM243.323 154.171C242.911 154.251 242.531 154.182 242.183 153.965C241.851 153.724 241.645 153.397 241.565 152.985L238.302 136.199C238.222 135.787 238.292 135.416 238.514 135.088C238.751 134.736 239.076 134.52 239.488 134.44L251.238 132.156C251.65 132.076 252.023 132.157 252.355 132.398C252.683 132.619 252.887 132.936 252.967 133.348C253.047 133.761 252.979 134.141 252.761 134.489C252.54 134.817 252.223 135.021 251.811 135.101L241.503 137.105L242.488 142.17L251.44 140.43C251.853 140.35 252.223 140.42 252.551 140.642C252.88 140.863 253.084 141.18 253.164 141.592C253.244 142.005 253.175 142.385 252.958 142.733C252.736 143.061 252.419 143.265 252.007 143.345L243.055 145.085L244.194 150.946L254.442 148.954C254.854 148.874 255.226 148.954 255.559 149.195C255.887 149.416 256.091 149.733 256.171 150.146C256.251 150.558 256.183 150.938 255.965 151.286C255.744 151.614 255.427 151.818 255.014 151.899L243.323 154.171ZM266.91 149.77C265.339 150.075 263.828 150.002 262.375 149.551C260.922 149.1 259.683 148.281 258.658 147.095C257.629 145.889 256.939 144.383 256.588 142.577C256.218 140.673 256.307 138.771 256.854 136.871C257.418 134.949 258.305 133.329 259.516 132.014C260.743 130.675 262.103 129.861 263.595 129.571C264.223 129.449 264.861 129.427 265.508 129.505C266.174 129.579 266.781 129.716 267.329 129.915C267.519 129.633 267.791 129.458 268.144 129.39C268.537 129.313 268.887 129.388 269.196 129.613C269.501 129.819 269.689 130.108 269.762 130.481L270.128 132.366C270.205 132.758 270.124 133.131 269.887 133.482C269.669 133.83 269.354 134.044 268.942 134.124C268.549 134.201 268.193 134.148 267.872 133.966C267.571 133.78 267.39 133.53 267.329 133.216L267.289 133.009C266.414 132.385 265.299 132.204 263.944 132.468C262.963 132.658 262.079 133.248 261.293 134.236C260.503 135.205 259.94 136.394 259.603 137.804C259.285 139.211 259.262 140.611 259.533 142.005C259.773 143.241 260.238 144.272 260.928 145.095C261.614 145.899 262.427 146.464 263.367 146.791C264.322 147.094 265.32 147.145 266.36 146.943C268.265 146.572 269.677 145.452 270.597 143.582C270.732 143.332 270.88 143.151 271.041 143.038C271.199 142.905 271.396 142.816 271.631 142.77C272.043 142.69 272.414 142.761 272.742 142.982C273.086 143.18 273.302 143.505 273.39 143.956C273.455 144.29 273.424 144.602 273.297 144.891C272.713 146.187 271.862 147.259 270.743 148.108C269.641 148.933 268.363 149.487 266.91 149.77ZM282.535 146.732C282.142 146.809 281.772 146.738 281.424 146.52C281.073 146.283 280.859 145.968 280.782 145.576L277.766 130.056L273.142 130.955C272.749 131.031 272.377 130.951 272.025 130.713C271.693 130.472 271.489 130.156 271.413 129.763C271.333 129.351 271.403 128.98 271.625 128.652C271.866 128.32 272.183 128.116 272.575 128.039L284.767 125.67C285.179 125.589 285.55 125.66 285.878 125.881C286.206 126.103 286.41 126.42 286.491 126.832C286.571 127.244 286.502 127.624 286.284 127.972C286.063 128.301 285.746 128.505 285.334 128.585L280.681 129.489L283.698 145.009C283.774 145.402 283.693 145.774 283.456 146.126C283.235 146.454 282.928 146.656 282.535 146.732Z" fill="black"/>
</svg>