<svg width="371" height="197" viewBox="0 0 371 197" fill="none" xmlns="http://www.w3.org/2000/svg">
<path d="M88.6071 187.488C87.369 180.466 103.496 171.464 126.902 165.142C102.745 167.206 84.511 164.257 83.274 157.242L83.2116 156.888C81.9735 149.866 98.1006 140.865 121.506 134.543C97.3487 136.601 79.1144 133.652 77.8763 126.63L77.8139 126.276C76.3274 117.846 99.8763 106.554 131.009 100.48C131.303 100.402 131.623 100.333 131.945 100.277L286.406 73.0411C286.728 72.9843 287.052 72.9397 287.355 72.9114C318.711 67.9676 344.678 70.528 346.165 78.9587L346.227 79.3125C347.465 86.3341 331.338 95.3357 307.933 101.658C332.112 99.5897 350.323 102.543 351.56 109.558L351.623 109.912C352.861 116.934 336.734 125.935 313.329 132.264C337.509 130.195 355.72 133.148 356.957 140.164L357.019 140.518C358.571 149.314 332.856 161.233 299.668 167.085L151.647 193.185C118.462 199.049 90.2217 196.644 88.6706 187.847L88.6071 187.488Z" fill="#DCFABD"/>
<path d="M19 2.2002C39.9442 2.2002 64.4217 -0.361828 81.642 12.8517C89.4025 18.8066 105.787 47.1673 96.5494 57.12C88.9109 65.3496 79.7003 71.8761 67.6042 71.8761C53.356 71.8761 50.8333 58.3489 50.8333 46.5799C50.8333 24.9296 119.878 27.6078 134.688 27.6078C155.502 27.6078 185 59.14 185 78.2001" stroke="#DCFABD" stroke-width="3" stroke-linecap="round"/>
<path d="M141.354 139.686C140.942 139.767 140.562 139.698 140.214 139.48C139.882 139.239 139.676 138.913 139.596 138.5C139.515 138.088 139.586 137.718 139.808 137.389C140.045 137.038 140.37 136.822 140.782 136.742L142.843 136.341L140.153 122.5L138.091 122.901C137.679 122.981 137.297 122.902 136.945 122.665C136.613 122.424 136.407 122.097 136.327 121.685C136.247 121.273 136.318 120.902 136.539 120.574C136.78 120.242 137.107 120.036 137.519 119.956L144.557 118.588C144.97 118.508 145.34 118.578 145.668 118.8C145.996 119.021 146.201 119.338 146.281 119.75C146.361 120.162 146.292 120.543 146.075 120.89C145.857 121.238 145.542 121.452 145.13 121.533L143.098 121.928L145.788 135.768L147.82 135.373C148.252 135.29 148.624 135.37 148.937 135.615C149.265 135.836 149.469 136.153 149.549 136.565C149.629 136.978 149.561 137.358 149.343 137.706C149.122 138.034 148.805 138.238 148.393 138.318L141.354 139.686ZM154.56 137.303C154.187 137.375 153.825 137.293 153.473 137.056C153.121 136.819 152.909 136.513 152.837 136.14L149.529 118.966C149.453 118.573 149.515 118.215 149.717 117.89C149.935 117.542 150.25 117.328 150.662 117.248C150.898 117.202 151.135 117.217 151.374 117.293C151.609 117.349 151.814 117.462 151.99 117.632L163.8 129.181L161.367 116.665C161.291 116.272 161.362 115.902 161.579 115.554C161.817 115.202 162.141 114.986 162.554 114.906C162.946 114.83 163.309 114.912 163.641 115.153C163.993 115.391 164.207 115.705 164.283 116.098L167.62 133.267C167.7 133.679 167.63 134.049 167.408 134.378C167.187 134.706 166.87 134.91 166.458 134.99C166.242 135.032 166.004 135.017 165.746 134.945C165.507 134.869 165.3 134.747 165.124 134.577L153.355 123.082L155.752 135.574C155.832 135.986 155.752 136.358 155.511 136.69C155.289 137.019 154.973 137.223 154.56 137.303ZM178.071 132.733C176.382 133.061 174.837 132.974 173.436 132.473C172.054 131.967 171.003 131.224 170.282 130.243C169.975 129.814 169.792 129.452 169.735 129.158C169.655 128.745 169.736 128.373 169.977 128.041C170.214 127.689 170.539 127.473 170.951 127.393C171.304 127.325 171.628 127.364 171.921 127.51C172.214 127.657 172.452 127.886 172.635 128.197C173.113 128.98 173.818 129.515 174.75 129.803C175.682 130.09 176.629 130.14 177.591 129.953C178.809 129.717 179.755 129.237 180.429 128.515C181.12 127.77 181.383 126.975 181.219 126.131C181.093 125.483 180.654 124.957 179.903 124.553C179.172 124.145 177.999 123.874 176.384 123.74C174.294 123.575 172.596 123.172 171.289 122.529C169.979 121.867 169.175 120.771 168.877 119.239C168.675 118.199 168.77 117.223 169.163 116.311C169.573 115.376 170.253 114.581 171.206 113.927C172.159 113.273 173.332 112.811 174.726 112.54C176.729 112.151 178.376 112.238 179.667 112.802C180.978 113.362 181.761 114.3 182.017 115.615C182.101 116.047 182.034 116.437 181.816 116.785C181.599 117.133 181.284 117.347 180.872 117.427C180.518 117.496 180.191 117.437 179.89 117.251C179.589 117.065 179.384 116.799 179.277 116.454C179.091 115.919 178.64 115.538 177.924 115.311C177.203 115.064 176.313 115.043 175.253 115.249C173.937 115.505 172.98 115.925 172.381 116.511C171.777 117.076 171.548 117.732 171.693 118.478C171.827 119.165 172.293 119.675 173.091 120.009C173.89 120.343 175.14 120.589 176.841 120.747C178.935 120.931 180.585 121.405 181.793 122.169C183.001 122.932 183.742 124.021 184.017 125.434C184.231 126.534 184.102 127.598 183.629 128.627C183.157 129.656 182.423 130.542 181.426 131.286C180.446 132.006 179.327 132.489 178.071 132.733ZM193.911 129.654C193.518 129.73 193.148 129.66 192.8 129.442C192.448 129.205 192.234 128.89 192.158 128.497L189.141 112.978L184.518 113.876C184.125 113.953 183.753 113.872 183.401 113.635C183.069 113.394 182.865 113.077 182.789 112.684C182.709 112.272 182.779 111.902 183.001 111.573C183.242 111.241 183.559 111.037 183.951 110.961L196.143 108.591C196.555 108.511 196.926 108.581 197.254 108.803C197.582 109.024 197.786 109.341 197.867 109.753C197.947 110.166 197.878 110.546 197.66 110.894C197.439 111.222 197.122 111.426 196.71 111.506L192.057 112.411L195.074 127.93C195.15 128.323 195.069 128.695 194.832 129.047C194.611 129.375 194.304 129.578 193.911 129.654ZM213.69 125.84C212.984 125.977 212.457 125.733 212.112 125.107L208.801 119.394L203.051 121.887L202.075 127.089C202.011 127.387 201.878 127.647 201.677 127.869C201.495 128.088 201.238 128.23 200.904 128.295C200.511 128.371 200.141 128.3 199.793 128.083C199.445 127.865 199.235 127.57 199.162 127.197C199.113 126.941 199.124 126.634 199.197 126.273L199.802 123.099C199.677 123.083 199.581 123.061 199.514 123.033C198.954 122.877 198.615 122.495 198.497 121.886C198.428 121.533 198.467 121.209 198.614 120.916C198.78 120.619 199.023 120.398 199.341 120.255L200.385 119.808L202.591 107.888C202.652 107.57 202.794 107.308 203.019 107.102C203.244 106.895 203.503 106.763 203.798 106.706C204.112 106.645 204.402 106.67 204.668 106.781C204.934 106.892 205.158 107.103 205.341 107.414L214.504 123.267C214.532 123.303 214.594 123.413 214.691 123.598C214.784 123.763 214.85 123.944 214.888 124.14C214.96 124.513 214.888 124.873 214.67 125.221C214.449 125.55 214.122 125.756 213.69 125.84ZM207.296 116.844L204.785 112.412L203.658 118.407L207.296 116.844ZM224.946 123.652C223.179 123.995 221.519 123.839 219.966 123.184C218.432 122.524 217.147 121.521 216.11 120.174C215.09 118.803 214.416 117.274 214.088 115.585C213.763 113.917 213.839 112.211 214.315 110.468C214.788 108.705 215.634 107.186 216.852 105.91C218.087 104.611 219.627 103.782 221.473 103.423C223.2 103.087 224.726 103.178 226.049 103.695C227.387 104.188 228.443 104.849 229.215 105.677C229.987 106.505 230.427 107.194 230.534 107.743C230.614 108.156 230.551 108.514 230.345 108.819C230.136 109.104 229.815 109.289 229.383 109.373C228.677 109.51 228.144 109.288 227.787 108.705C227.25 107.832 226.508 107.161 225.562 106.693C224.611 106.205 223.439 106.097 222.045 106.368C220.592 106.65 219.459 107.319 218.645 108.373C217.847 109.405 217.335 110.543 217.109 111.789C216.883 113.035 216.857 114.11 217.033 115.013C217.239 116.073 217.671 117.089 218.328 118.062C218.986 119.034 219.835 119.786 220.875 120.317C221.932 120.825 223.098 120.955 224.374 120.707C225.63 120.463 226.669 119.935 227.489 119.123C228.305 118.292 228.827 117.254 229.053 116.008L228.612 116.094C227.952 116.263 227.238 116.523 226.472 116.876C226.157 117.039 225.901 117.14 225.705 117.178C225.312 117.254 224.944 117.194 224.6 116.996C224.272 116.774 224.064 116.438 223.976 115.986C223.846 115.319 224.106 114.769 224.756 114.337C225.063 114.135 225.58 113.912 226.307 113.669C227.053 113.422 227.819 113.222 228.604 113.069C229.723 112.852 230.845 112.807 231.971 112.935C232.637 113.009 233.041 113.409 233.182 114.135C233.247 114.469 233.206 114.783 233.059 115.076C232.909 115.35 232.696 115.565 232.42 115.72C232.271 115.79 232.157 115.832 232.078 115.848C231.884 117.78 231.162 119.469 229.915 120.913C228.684 122.334 227.027 123.247 224.946 123.652ZM239.254 120.84C238.842 120.92 238.472 120.849 238.144 120.628C237.815 120.407 237.611 120.09 237.531 119.677L234.251 102.803C234.148 102.273 234.123 101.881 234.175 101.626C234.247 101.368 234.432 101.169 234.731 101.029C235.046 100.866 235.557 100.716 236.263 100.578L237.471 100.344C240.769 99.7026 243.418 99.7581 245.419 100.51C247.419 101.262 248.612 102.63 248.997 104.613C249.486 107.126 248.403 109.313 245.749 111.173C248.151 112.418 250.168 114.094 251.8 116.201C251.936 116.378 252.029 116.594 252.079 116.85C252.155 117.242 252.084 117.613 251.867 117.961C251.665 118.285 251.348 118.489 250.916 118.573C250.366 118.68 249.885 118.509 249.472 118.059C246.079 114.44 243.361 112.829 241.32 113.226C240.711 113.344 240.065 113.531 239.381 113.786L240.417 119.117C240.497 119.529 240.417 119.901 240.176 120.233C239.954 120.561 239.647 120.764 239.254 120.84ZM238.854 111.077C240.948 110.527 242.739 109.731 244.227 108.688C245.715 107.645 246.334 106.475 246.082 105.18C245.864 104.06 245.04 103.334 243.611 103.001C242.2 102.664 240.307 102.726 237.932 103.188L237.343 103.302L238.854 111.077ZM267.325 115.414C266.618 115.552 266.092 115.307 265.746 114.682L262.435 108.969L256.685 111.462L255.71 116.663C255.646 116.961 255.513 117.221 255.312 117.444C255.13 117.662 254.872 117.804 254.539 117.869C254.146 117.945 253.776 117.875 253.428 117.657C253.08 117.44 252.87 117.144 252.797 116.771C252.747 116.516 252.759 116.208 252.832 115.848L253.437 112.674C253.312 112.657 253.216 112.635 253.149 112.608C252.589 112.452 252.25 112.069 252.132 111.461C252.063 111.107 252.102 110.784 252.249 110.49C252.415 110.193 252.657 109.973 252.976 109.83L254.02 109.382L256.226 97.4622C256.286 97.1448 256.429 96.8828 256.654 96.6761C256.878 96.4694 257.138 96.3375 257.432 96.2802C257.747 96.2192 258.037 96.2443 258.303 96.3555C258.569 96.4668 258.793 96.6779 258.976 96.9887L268.139 112.842C268.166 112.877 268.229 112.987 268.326 113.172C268.419 113.337 268.485 113.518 268.523 113.714C268.595 114.087 268.523 114.448 268.305 114.796C268.084 115.124 267.757 115.33 267.325 115.414ZM260.931 106.419L258.419 101.987L257.293 107.982L260.931 106.419ZM271.229 114.625C270.797 114.709 270.429 114.648 270.124 114.442C269.839 114.233 269.665 113.971 269.604 113.657C269.543 113.343 269.52 113.011 269.533 112.662L269.939 95.255C269.949 94.8863 270.063 94.579 270.28 94.3331C270.493 94.0675 270.786 93.8985 271.159 93.826C271.846 93.6924 272.363 93.9384 272.708 94.5639L279.396 106.803L281.561 92.782C281.674 92.108 282.104 91.6985 282.85 91.5534C283.184 91.4886 283.48 91.5431 283.738 91.7171C284.012 91.8676 284.222 92.112 284.369 92.4501L291.349 108.391C291.535 108.824 291.641 109.109 291.668 109.246C291.741 109.619 291.666 109.97 291.445 110.298C291.219 110.607 290.901 110.801 290.488 110.881C290.096 110.957 289.763 110.92 289.489 110.77C289.211 110.6 289.001 110.355 288.857 110.037L283.755 98.2538L281.647 111.622C281.606 111.935 281.475 112.205 281.255 112.431C281.03 112.638 280.761 112.772 280.446 112.833C279.759 112.967 279.243 112.721 278.897 112.095L272.739 100.854L272.449 113.196C272.439 113.564 272.327 113.882 272.114 114.147C271.897 114.393 271.602 114.552 271.229 114.625ZM167.883 170.368C167.49 170.445 167.12 170.374 166.772 170.156C166.424 169.939 166.21 169.624 166.13 169.212L162.861 152.396C162.754 151.847 162.747 151.441 162.838 151.178C162.926 150.896 163.149 150.68 163.507 150.529C163.88 150.354 164.499 150.183 165.363 150.015C169.014 149.305 171.848 149.315 173.864 150.044C175.9 150.768 177.116 152.152 177.513 154.194C177.834 155.843 177.518 157.31 176.566 158.595C175.613 159.881 174.36 160.929 172.807 161.74C171.253 162.552 169.667 163.145 168.049 163.521L169.045 168.645C169.125 169.057 169.055 169.427 168.833 169.756C168.612 170.084 168.295 170.288 167.883 170.368ZM167.488 160.635C169.389 160.143 171.121 159.409 172.683 158.433C174.242 157.437 174.88 156.213 174.598 154.76C174.388 153.68 173.568 152.974 172.138 152.641C170.728 152.304 168.815 152.37 166.401 152.839L165.988 152.919L167.488 160.635ZM184.13 167.21C183.718 167.29 183.348 167.22 183.02 166.998C182.691 166.777 182.487 166.46 182.407 166.048L179.127 149.173C179.024 148.643 178.999 148.251 179.051 147.996C179.123 147.738 179.308 147.539 179.607 147.399C179.922 147.236 180.433 147.086 181.139 146.949L182.347 146.714C185.645 146.073 188.294 146.128 190.295 146.88C192.295 147.633 193.488 149 193.873 150.983C194.362 153.496 193.279 155.683 190.625 157.543C193.027 158.788 195.044 160.464 196.676 162.571C196.812 162.748 196.905 162.965 196.955 163.22C197.031 163.612 196.96 163.983 196.743 164.331C196.541 164.655 196.224 164.859 195.792 164.943C195.242 165.05 194.761 164.879 194.348 164.429C190.955 160.81 188.237 159.199 186.196 159.596C185.587 159.714 184.941 159.901 184.257 160.156L185.293 165.487C185.373 165.899 185.293 166.271 185.052 166.603C184.83 166.931 184.523 167.134 184.13 167.21ZM183.73 157.447C185.824 156.897 187.615 156.101 189.103 155.058C190.591 154.015 191.21 152.845 190.958 151.55C190.74 150.431 189.917 149.704 188.487 149.371C187.076 149.034 185.184 149.096 182.808 149.558L182.219 149.673L183.73 157.447ZM206.453 162.871C205 163.153 203.616 163.005 202.302 162.425C200.983 161.826 199.852 160.884 198.91 159.6C197.988 158.313 197.356 156.795 197.017 155.048C196.631 153.065 196.681 151.171 197.165 149.365C197.65 147.559 198.468 146.056 199.62 144.854C200.787 143.629 202.146 142.865 203.697 142.564C205.15 142.281 206.534 142.43 207.849 143.01C209.183 143.586 210.312 144.518 211.234 145.805C212.177 147.089 212.82 148.614 213.163 150.381C213.552 152.384 213.505 154.288 213.02 156.093C212.532 157.879 211.704 159.385 210.537 160.61C209.385 161.812 208.024 162.566 206.453 162.871ZM205.909 160.073C206.969 159.867 207.876 159.345 208.63 158.505C209.403 157.662 209.939 156.591 210.236 155.29C210.533 153.989 210.535 152.583 210.241 151.071C209.974 149.697 209.507 148.555 208.842 147.646C208.195 146.732 207.44 146.094 206.575 145.733C205.726 145.348 204.889 145.235 204.065 145.396C203.044 145.594 202.168 146.121 201.438 146.976C200.708 147.831 200.206 148.917 199.932 150.233C199.654 151.53 199.664 152.944 199.962 154.475C200.229 155.85 200.674 156.986 201.296 157.883C201.919 158.781 202.634 159.416 203.44 159.789C204.261 160.139 205.085 160.234 205.909 160.073ZM222.582 159.736C221.306 159.984 220.196 159.935 219.253 159.588C218.325 159.219 217.587 158.669 217.038 157.941C216.504 157.189 216.152 156.371 215.98 155.488C215.896 155.056 215.953 154.668 216.151 154.324C216.369 153.976 216.703 153.758 217.155 153.67C217.567 153.59 217.939 153.67 218.271 153.911C218.619 154.129 218.833 154.444 218.913 154.856C219.23 156.486 220.262 157.131 222.009 156.791C222.814 156.635 223.387 156.33 223.727 155.877C224.062 155.404 224.169 154.853 224.047 154.225L221.78 142.563L219.101 143.084C218.688 143.164 218.308 143.096 217.96 142.878C217.609 142.641 217.393 142.316 217.313 141.904C217.236 141.511 217.319 141.149 217.56 140.817C217.797 140.465 218.122 140.249 218.534 140.169L224.159 139.075C224.551 138.999 224.914 139.081 225.246 139.323C225.594 139.54 225.806 139.845 225.882 140.238C225.958 140.631 225.888 141.001 225.67 141.349C225.468 141.673 225.181 141.872 224.808 141.944L224.72 141.961L226.992 153.653C227.278 155.125 227.022 156.428 226.224 157.561C225.445 158.69 224.231 159.415 222.582 159.736ZM233.935 157.346C233.523 157.426 233.143 157.357 232.795 157.139C232.463 156.898 232.257 156.572 232.177 156.159L228.914 139.374C228.834 138.961 228.905 138.591 229.126 138.263C229.363 137.911 229.688 137.695 230.1 137.615L241.85 135.331C242.263 135.251 242.635 135.331 242.967 135.572C243.295 135.794 243.499 136.111 243.58 136.523C243.66 136.935 243.591 137.315 243.373 137.663C243.152 137.991 242.835 138.196 242.423 138.276L232.116 140.279L233.1 145.344L242.053 143.604C242.465 143.524 242.835 143.595 243.164 143.816C243.492 144.038 243.696 144.355 243.776 144.767C243.856 145.179 243.788 145.559 243.57 145.907C243.349 146.235 243.032 146.44 242.619 146.52L233.667 148.26L234.806 154.12L245.054 152.128C245.467 152.048 245.839 152.129 246.171 152.37C246.499 152.591 246.703 152.908 246.783 153.32C246.864 153.732 246.795 154.113 246.577 154.46C246.356 154.789 246.039 154.993 245.627 155.073L233.935 157.346ZM257.522 152.944C255.952 153.249 254.44 153.177 252.987 152.725C251.534 152.274 250.295 151.456 249.27 150.27C248.241 149.064 247.551 147.558 247.2 145.752C246.83 143.847 246.919 141.945 247.466 140.046C248.03 138.123 248.917 136.504 250.128 135.189C251.356 133.85 252.715 133.036 254.207 132.746C254.835 132.623 255.473 132.601 256.12 132.679C256.786 132.754 257.393 132.89 257.941 133.089C258.131 132.808 258.403 132.633 258.756 132.564C259.149 132.488 259.5 132.562 259.808 132.788C260.113 132.993 260.302 133.283 260.374 133.656L260.741 135.54C260.817 135.933 260.736 136.305 260.499 136.657C260.282 137.005 259.967 137.219 259.554 137.299C259.162 137.375 258.805 137.322 258.484 137.14C258.183 136.954 258.002 136.704 257.941 136.39L257.901 136.184C257.026 135.559 255.911 135.379 254.556 135.642C253.575 135.833 252.691 136.422 251.905 137.411C251.115 138.379 250.552 139.568 250.215 140.979C249.897 142.385 249.874 143.785 250.145 145.179C250.385 146.416 250.851 147.446 251.54 148.27C252.226 149.074 253.039 149.639 253.979 149.966C254.934 150.269 255.932 150.319 256.973 150.117C258.877 149.747 260.289 148.627 261.209 146.757C261.344 146.507 261.492 146.325 261.654 146.212C261.811 146.08 262.008 145.991 262.243 145.945C262.656 145.865 263.026 145.935 263.354 146.157C263.698 146.355 263.914 146.679 264.002 147.131C264.067 147.465 264.036 147.776 263.909 148.066C263.325 149.361 262.474 150.433 261.356 151.282C260.253 152.108 258.975 152.662 257.522 152.944ZM273.147 149.907C272.755 149.983 272.384 149.913 272.036 149.695C271.685 149.458 271.471 149.143 271.394 148.75L268.378 133.231L263.754 134.129C263.362 134.206 262.989 134.125 262.638 133.888C262.306 133.647 262.101 133.33 262.025 132.937C261.945 132.525 262.016 132.155 262.237 131.827C262.478 131.494 262.795 131.29 263.188 131.214L275.379 128.844C275.792 128.764 276.162 128.835 276.49 129.056C276.818 129.277 277.023 129.594 277.103 130.007C277.183 130.419 277.114 130.799 276.897 131.147C276.675 131.475 276.358 131.679 275.946 131.76L271.293 132.664L274.31 148.183C274.386 148.576 274.306 148.948 274.068 149.3C273.847 149.628 273.54 149.831 273.147 149.907Z" fill="#1C1B21"/>
</svg>
