<svg width="175" height="155" viewBox="0 0 175 155" fill="none" xmlns="http://www.w3.org/2000/svg">
<path d="M102.888 79.1289C102.888 86.8205 96.5486 93.0435 88.7131 93.0435C80.8776 93.0435 74.5381 86.8205 74.5381 79.1289C74.5381 71.4373 80.8776 65.2142 88.7131 65.2142C96.5486 65.2142 102.888 71.4373 102.888 79.1289Z" fill="#A8E5F8"/>
<path d="M87.6502 93.07C79.2346 93.07 72.3848 86.3481 72.3848 78.085C72.3848 69.8218 79.2346 63.1 87.6502 63.1C96.0657 63.1 102.916 69.8218 102.916 78.085C102.916 86.3481 96.0657 93.07 87.6502 93.07ZM87.6502 65.2407C80.434 65.2407 74.5655 71.0014 74.5655 78.085C74.5655 85.1686 80.434 90.9293 87.6502 90.9293C94.8663 90.9293 100.735 85.1686 100.735 78.085C100.735 71.0014 94.8663 65.2407 87.6502 65.2407Z" fill="#4E7AB5"/>
<path d="M53.6031 153.79C49.8718 153.79 46.4741 152.95 43.5017 151.298C38.5296 148.53 35.0927 143.76 33.2826 137.126C31.1782 129.405 31.429 119.149 34.0067 107.417C13.2196 100.398 1.32129 89.6281 1.32129 77.7878C1.32129 65.9454 13.2174 55.1776 34.0045 48.1603C31.4268 36.4271 31.1738 26.1709 33.2783 18.4493C35.0883 11.8131 38.5252 7.0436 43.4952 4.2778C46.4654 2.62517 49.8652 1.78601 53.5965 1.78601C63.1657 1.78601 75.1665 7.63016 87.466 18.2652C99.7656 7.64086 111.762 1.801 121.32 1.801C125.052 1.801 128.449 2.64016 131.422 4.29279C136.387 7.05645 139.826 11.8174 141.636 18.4451C143.743 26.1645 143.49 36.4228 140.91 48.1582C161.702 55.1754 173.602 65.9454 173.602 77.7878C173.602 89.6302 161.702 100.4 140.91 107.42C143.488 119.153 143.741 129.409 141.634 137.128C139.824 143.758 136.389 148.519 131.428 151.283C128.454 152.935 125.054 153.775 121.325 153.775C111.76 153.775 99.759 147.935 87.4639 137.315C75.1643 147.948 63.1657 153.79 53.6031 153.79ZM42.4004 109.911C40.2393 120.009 39.9972 128.636 41.7113 134.913C42.8933 139.25 44.941 142.258 47.8044 143.85C49.4465 144.764 51.3983 145.229 53.6031 145.229C61.0046 145.229 70.7483 140.344 81.1265 131.449C75.9254 126.307 70.8486 120.486 66.0182 114.129C57.6636 113.238 49.7256 111.821 42.4004 109.911ZM93.799 131.445C104.175 140.331 113.921 145.212 121.322 145.214C123.527 145.214 125.479 144.749 127.126 143.835C129.98 142.247 132.024 139.246 133.203 134.915C134.917 128.634 134.678 120.009 132.516 109.913C125.185 111.823 117.244 113.24 108.892 114.131C104.064 120.489 98.9936 126.307 93.799 131.445ZM77.7922 115.021C80.9586 118.823 84.1992 122.37 87.4617 125.596C90.7154 122.372 93.9582 118.825 97.1225 115.021C93.871 115.173 90.6325 115.25 87.4617 115.25C84.2887 115.25 81.048 115.173 77.7922 115.021ZM70.7766 106C76.2176 106.456 81.8288 106.687 87.4617 106.687C93.099 106.687 98.7036 106.456 104.136 106.002C107.376 101.541 110.467 96.8658 113.326 92.0985C116.091 87.4852 118.692 82.6708 121.061 77.7857C118.699 72.9134 116.1 68.1011 113.328 63.4771C110.475 58.7204 107.385 54.0451 104.136 49.5732C98.7079 49.1193 93.1033 48.8881 87.4617 48.8881C81.8178 48.8881 76.2111 49.1193 70.7853 49.5753C67.536 54.0408 64.4415 58.7162 61.5847 63.4793C58.8151 68.1011 56.2156 72.9134 53.8517 77.7921C56.2113 82.6601 58.8107 87.4724 61.5825 92.1006C64.4262 96.8423 67.5164 101.515 70.7766 106ZM125.606 88.0183C124.066 90.8997 122.47 93.7254 120.841 96.4398C119.198 99.1842 117.452 101.937 115.637 104.652C120.814 103.868 125.767 102.864 130.403 101.655C129.117 97.2683 127.505 92.6936 125.606 88.0183ZM44.5093 101.652C49.1477 102.86 54.0981 103.866 59.2687 104.649C57.4434 101.918 55.6966 99.1628 54.0654 96.4398C52.4407 93.7276 50.8422 90.9061 49.3048 88.0247C47.414 92.6786 45.8046 97.249 44.5093 101.652ZM130.676 77.7878C134.008 85.047 136.723 92.2226 138.762 99.1457C154.904 93.5713 164.879 85.4387 164.879 77.7878C164.879 70.1369 154.904 62.0043 138.762 56.4299C136.727 63.353 134.01 70.5286 130.676 77.7878ZM36.1525 56.4342C20.017 62.0064 10.0444 70.139 10.0444 77.7878C10.0444 85.4387 20.017 93.5713 36.1569 99.1436C38.1937 92.2184 40.9088 85.0427 44.2367 77.7921C40.9066 70.5393 38.1916 63.3637 36.1525 56.4342ZM44.5071 53.9231C45.8024 58.3201 47.4118 62.8927 49.3048 67.5552C50.84 64.6823 52.4363 61.8587 54.0676 59.1379C55.7075 56.3999 57.4543 53.647 59.2752 50.9261C54.0981 51.7075 49.1477 52.7136 44.5071 53.9231ZM115.642 50.924C117.467 53.6577 119.214 56.4106 120.845 59.1379C122.472 61.8502 124.07 64.6738 125.61 67.5552C127.505 62.8948 129.114 58.3223 130.41 53.921C125.765 52.7115 120.814 51.7053 115.642 50.924ZM53.5965 10.3489C51.3918 10.3489 49.4421 10.8113 47.8022 11.7275C44.941 13.3202 42.8911 16.3279 41.707 20.665C39.9951 26.948 40.2349 35.5729 42.3983 45.6664C49.7256 43.7569 57.668 42.3376 66.0247 41.447C70.8595 35.087 75.9363 29.2706 81.1309 24.1329C70.7504 15.234 61.0002 10.3489 53.5965 10.3489ZM108.894 41.4449C117.247 42.3354 125.187 43.7526 132.519 45.6621C134.682 35.5665 134.924 26.9394 133.208 20.6585C132.026 16.33 129.98 13.3287 127.123 11.7403C125.479 10.8262 123.527 10.3617 121.32 10.3617C113.921 10.3617 104.179 15.2447 93.8012 24.1329C98.9914 29.2685 104.064 35.087 108.894 41.4449ZM87.4617 40.3253C90.6325 40.3253 93.871 40.4024 97.1247 40.5544C93.9626 36.7567 90.7219 33.2117 87.466 29.9835C84.2014 33.216 80.963 36.761 77.8009 40.5544C81.0524 40.4024 84.2908 40.3253 87.4617 40.3253Z" fill="#A8E5F8"/>
<path d="M53.5961 2.85639C63.3965 2.85639 75.395 9.08586 87.4678 19.6974C99.5383 9.09443 111.53 2.87137 121.322 2.87137C124.861 2.87137 128.08 3.66344 130.887 5.22402C135.589 7.83997 138.851 12.3804 140.583 18.7234C142.931 27.1085 142.438 37.4332 139.636 48.8646C159.747 55.4602 172.511 65.8662 172.511 77.7878C172.511 89.7094 159.747 100.115 139.634 106.713C142.558 119.071 143.049 129.674 140.58 136.852C138.849 143.193 135.589 147.736 130.891 150.352C128.08 151.914 125.527 152.713 121.989 152.713C121.987 152.713 121.082 152.713 121.08 152.713C111.284 152.713 99.5296 146.483 87.4612 135.885C75.3907 146.494 63.3965 152.719 53.6004 152.719C50.0611 152.719 46.8422 151.927 44.0356 150.367C39.3295 147.744 36.0649 143.197 34.3355 136.85C31.7404 128.893 32.2638 118.434 35.282 106.711C15.1731 100.113 2.41124 89.7094 2.41124 77.7878C2.41124 65.8683 15.1731 55.4623 35.2798 48.8646C33.7816 42.3162 32.8242 36.2365 32.7915 30.6921C32.7654 26.3122 33.3738 22.2384 34.3333 18.7255C36.0649 12.3761 39.3273 7.82927 44.0334 5.20903C46.8379 3.64631 50.0567 2.85639 53.5961 2.85639ZM41.5735 46.9915C49.156 44.9471 57.576 43.4015 66.6153 42.4596C71.8099 35.5879 77.2465 29.4098 82.7224 24.0837C72.0977 14.7802 61.7522 9.27639 53.5961 9.27639C51.1994 9.27639 49.071 9.78588 47.2631 10.7942C44.1381 12.5346 41.9159 15.7606 40.6532 20.3867C38.7821 27.2413 39.2074 36.5063 41.5735 46.9915ZM133.342 46.9893C135.709 36.5041 136.134 27.237 134.263 20.3824C133.002 15.7649 130.78 12.5453 127.662 10.8091C125.852 9.80086 123.717 9.29137 121.322 9.29137C113.173 9.29137 102.833 14.7887 92.211 24.0837C97.6847 29.4098 103.115 35.5879 108.305 42.4575C117.34 43.3994 125.76 44.945 133.342 46.9893ZM75.4169 41.751C79.3466 41.522 83.2873 41.3229 87.3849 41.3229C91.4826 41.3229 95.5737 41.5241 99.5035 41.751C95.5606 36.8723 91.5131 32.4154 87.4634 28.47C83.4137 32.4154 79.3641 36.8723 75.4169 41.751ZM87.4612 107.758C93.4824 107.758 99.2461 107.499 104.729 107.026C108.041 102.494 111.245 97.6815 114.263 92.6422C117.213 87.7207 119.883 82.7393 122.266 77.7878C119.883 72.8363 117.213 67.857 114.265 62.9377C111.245 57.8963 108.043 53.0861 104.729 48.5542C99.2483 48.0768 93.4845 47.8178 87.4612 47.8178C81.438 47.8178 75.672 48.0768 70.1896 48.5521C66.8726 53.084 63.6669 57.8963 60.6465 62.9355C57.6981 67.857 55.0288 72.8385 52.6453 77.7899C55.0288 82.7414 57.6959 87.7207 60.6443 92.6401C63.6647 97.6793 66.8682 102.492 70.183 107.024C75.6676 107.499 81.4358 107.758 87.4612 107.758ZM125.725 70.1091C128.178 64.3099 130.209 58.6156 131.757 53.1696C126.19 51.6668 120.04 50.4252 113.378 49.5154C115.619 52.7843 117.802 56.173 119.902 59.6795C121.983 63.1453 123.917 66.6304 125.725 70.1091ZM49.1866 70.1112C50.9922 66.6325 52.9288 63.1475 55.0049 59.6795C57.1071 56.173 59.2922 52.7864 61.5363 49.5175C54.874 50.4252 48.7242 51.6689 43.1567 53.1717C44.7051 58.6177 46.7354 64.3099 49.1866 70.1112ZM138.029 100.526C155.641 94.6695 165.969 86.0638 165.969 77.7878C165.969 69.5118 155.641 60.9061 138.029 55.0491C135.951 62.3383 133.081 69.9977 129.48 77.7857C133.081 85.5757 135.951 93.2352 138.029 100.526ZM36.8892 100.524C38.9653 93.2373 41.833 85.5779 45.4335 77.7921C41.833 70.0042 38.9631 62.3425 36.887 55.0534C19.2773 60.9104 8.95355 69.5139 8.95355 77.7878C8.95355 86.0638 19.2795 94.6673 36.8892 100.524ZM113.378 106.06C120.04 105.153 126.19 103.911 131.757 102.406C130.207 96.96 128.176 91.2657 125.725 85.4644C123.917 88.9431 121.981 92.4282 119.902 95.8961C117.802 99.4026 115.619 102.791 113.378 106.06ZM61.5297 106.058C59.2879 102.789 57.1049 99.4026 55.0027 95.8982C52.9266 92.4324 50.9922 88.9495 49.1866 85.473C46.7354 91.27 44.7073 96.9622 43.1589 102.406C48.7242 103.907 54.8718 105.148 61.5297 106.058ZM53.6026 146.297C61.7565 146.297 72.0977 140.795 82.7203 131.496C77.24 126.168 71.8055 119.988 66.6087 113.114C57.5738 112.174 49.1582 110.629 41.5779 108.584C39.2139 119.069 38.7887 128.334 40.6576 135.189C41.9181 139.813 44.1424 143.039 47.2653 144.779C49.071 145.788 51.206 146.297 53.6026 146.297ZM121.322 146.284C123.719 146.284 125.849 145.775 127.662 144.766C130.78 143.03 132.998 139.811 134.256 135.191C136.127 128.334 135.702 119.069 133.338 108.586C125.756 110.631 117.338 112.176 108.301 113.116C103.11 119.988 97.6781 126.166 92.2044 131.494C102.827 140.785 113.168 146.282 121.322 146.284ZM87.4612 127.11C91.5109 123.162 95.5584 118.703 99.5035 113.825C95.5759 114.054 91.7421 114.537 87.6423 114.537C83.5402 114.537 79.3401 114.054 75.4103 113.825C79.3575 118.705 83.4094 123.165 87.4612 127.11ZM52.8219 0.876225C48.8987 0.876225 46.0942 1.59979 42.9583 3.34447C37.7266 6.25798 34.1153 11.2458 32.2267 18.1711C30.1332 25.8498 30.3142 35.9433 32.7414 47.4582C12.0481 54.6445 0.230469 65.6393 0.230469 77.7878C0.230469 89.9385 12.0502 100.931 32.7436 108.117C30.3164 119.632 30.1354 129.726 32.2311 137.405C34.1174 144.325 37.7266 149.313 42.9626 152.231C46.103 153.978 49.8757 154.721 53.7967 154.721C63.5818 154.721 75.0658 149.294 87.4634 138.738C99.8589 149.283 111.537 154.845 121.32 154.847C125.243 154.847 128.824 153.963 131.964 152.216C137.192 149.307 140.799 144.325 142.685 137.409C144.781 129.728 144.6 119.634 142.172 108.122C162.87 100.933 174.692 89.9385 174.692 77.7878C174.692 65.6371 162.872 54.6424 142.175 47.456C144.604 35.939 144.783 25.8455 142.687 18.1668C140.799 11.2501 137.189 6.26868 131.96 3.35945C128.822 1.61477 125.241 0.728516 121.32 0.728516C111.539 0.728516 99.8633 6.29223 87.4656 16.8417C75.0658 6.28367 63.3332 0.869803 53.5459 0.869803L52.8219 0.876225ZM43.2352 44.3434C42.2277 39.3684 41.5517 34.7059 41.5146 30.6172C41.4819 26.9351 41.9966 23.7305 42.7577 20.939C43.8633 16.8888 45.7409 14.1016 48.3382 12.6544C49.8124 11.8324 51.6094 11.2758 53.6222 11.2758C60.5593 11.2758 69.688 15.9383 79.5363 24.1929C74.6928 29.0587 69.9584 34.509 65.4355 40.4302C57.6174 41.2865 50.1635 42.5987 43.2352 44.3434ZM95.3949 24.1972C105.241 15.949 114.392 11.4321 121.32 11.4321C123.335 11.4321 125.108 11.8495 126.584 12.6716C129.177 14.1144 131.053 16.8952 132.156 20.9369C134.062 26.9694 133.816 34.9885 131.681 44.3413C124.752 42.5987 117.301 41.2843 109.485 40.4323C104.964 34.5133 100.234 29.063 95.3949 24.1972ZM80.2058 39.3834C82.5959 36.6005 85.0231 33.9674 87.4634 31.5098C89.9037 33.9674 92.3287 36.6005 94.7167 39.3834C92.2764 39.2978 89.8492 39.2549 87.4612 39.2549C85.0733 39.2549 82.6483 39.2978 80.2058 39.3834ZM71.3781 50.6007C76.6228 50.1747 82.0268 49.8708 87.4612 49.8708C92.8935 49.8708 98.2975 50.1747 103.54 50.6007C106.663 54.9228 109.637 59.4333 112.385 64.0209C115.05 68.4693 117.56 73.0954 119.85 77.7857C117.558 82.4781 115.048 87.1063 112.383 91.5547C109.633 96.1444 106.661 100.653 103.538 104.975C98.2975 105.401 92.8935 105.972 87.4612 105.972C82.0246 105.972 76.6185 105.399 71.3715 104.973C68.2465 100.653 65.2719 96.1423 62.522 91.5526C59.8571 87.1063 57.3492 82.4803 55.0594 77.7878C57.3492 73.0954 59.8592 68.4671 62.5242 64.0187C65.2763 59.4312 68.253 54.9207 71.3781 50.6007ZM125.455 64.9949C124.257 62.8156 123.03 60.6749 121.784 58.5942C120.541 56.5198 119.239 54.4369 117.892 52.3668C121.76 53.0133 125.492 53.7861 129.044 54.6788C128.026 58.0312 126.824 61.482 125.455 64.9949ZM45.8696 54.6788C49.4221 53.7861 53.1534 53.0133 57.0221 52.3668C55.6722 54.4369 54.3703 56.5198 53.1272 58.592C51.882 60.6728 50.6542 62.8135 49.457 64.9928C48.0875 61.4841 46.888 58.0333 45.8696 54.6788ZM131.873 77.7857C134.958 71.0167 137.514 64.3163 139.484 57.8214C154.537 63.2138 163.788 70.7684 163.788 77.7878C163.788 84.8072 154.537 92.3618 139.484 97.7542C137.512 91.2572 134.958 84.5546 131.873 77.7857ZM35.4324 97.7521C20.383 92.3596 11.1343 84.8051 11.1343 77.7878C11.1343 70.7705 20.383 63.216 35.4303 57.8235C37.3995 64.3206 39.9532 71.021 43.039 77.7899C39.9554 84.5567 37.4017 91.2572 35.4324 97.7521ZM117.89 103.211C119.237 101.139 120.541 99.0558 121.782 96.9836C123.03 94.9028 124.257 92.76 125.455 90.5807C126.824 94.0936 128.024 97.5466 129.044 100.901C125.49 101.789 121.758 102.564 117.89 103.211ZM45.8718 100.897C46.8902 97.5445 48.0896 94.0958 49.457 90.5871C50.652 92.7642 51.8798 94.905 53.125 96.9836C54.3659 99.0558 55.6678 101.137 57.0177 103.209C53.1512 102.56 49.4221 101.787 45.8718 100.897ZM53.6026 144.156C51.5876 144.156 49.8168 143.739 48.3404 142.917C45.7453 141.47 43.8677 138.685 42.7642 134.634C40.952 128.544 41.157 120.523 43.2396 111.23C50.1657 112.973 57.6152 114.287 65.4289 115.139C69.954 121.06 74.6885 126.513 79.5342 131.383C69.688 139.639 60.5353 144.159 53.6026 144.156ZM109.483 115.143C117.299 114.289 124.75 112.977 131.679 111.234C134.088 121.381 134.278 129.469 132.152 134.637C131.05 138.68 129.177 141.461 126.586 142.902C125.108 143.724 123.337 144.141 121.324 144.141C114.389 144.141 105.235 139.624 95.3905 131.381C100.232 126.515 104.962 121.064 109.483 115.143ZM87.4612 124.07C85.0188 121.613 82.5894 118.977 80.1993 116.192C82.6417 116.278 85.0711 116.321 87.4612 116.321C89.8492 116.321 92.2764 116.278 94.7167 116.192C92.3287 118.977 89.9015 121.613 87.4612 124.07Z" fill="#4E7AB5"/>
</svg>
