<svg width="78" height="78" viewBox="0 0 78 78" fill="none" xmlns="http://www.w3.org/2000/svg">
<circle cx="38.7639" cy="38.7639" r="31.5" transform="rotate(-12.5 38.7639 38.7639)" stroke="white" stroke-width="2"/>
<path d="M12.3879 37.0095L16.2017 35.4687L26.1017 43.2358L26.3408 43.1392L28.0667 30.6749L31.8805 29.134L29.2686 45.9123L32.7981 54.6482L29.4515 56.0002L25.922 47.2644L12.3879 37.0095ZM51.8148 29.2575C51.3385 28.6832 50.8174 28.207 50.2518 27.8289C49.6904 27.4406 49.0925 27.1597 48.4579 26.9864C47.8204 26.8058 47.1507 26.7436 46.4487 26.7997C45.754 26.8529 45.0372 27.0287 44.2983 27.3272C43.0452 27.8335 42.0454 28.6124 41.299 29.6639C40.5526 30.7154 40.1377 31.9826 40.0544 33.4656C39.9753 34.9384 40.2987 36.573 41.0245 38.3694C41.7533 40.173 42.6627 41.5793 43.7528 42.5882C44.8429 43.597 46.0289 44.2174 47.3107 44.4495C48.5925 44.6815 49.8853 44.5341 51.1892 44.0073C52.3989 43.5186 53.3533 42.8465 54.0525 41.991C54.759 41.1326 55.177 40.1548 55.3067 39.0576C55.4407 37.9502 55.2604 36.7844 54.7658 35.5602L55.7008 35.372L49.3337 37.9445L48.2143 35.1738L56.9609 31.64L57.9838 34.1716C58.7389 36.0405 58.996 37.824 58.7553 39.5222C58.5189 41.2103 57.8524 42.7097 56.7558 44.0207C55.6664 45.3287 54.2236 46.3456 52.4271 47.0714C50.4134 47.885 48.4587 48.1355 46.5629 47.8229C44.6744 47.5074 42.9625 46.6697 41.4272 45.3098C39.889 43.9428 38.6458 42.0858 37.6976 39.7388C36.9806 37.9641 36.583 36.271 36.5049 34.6595C36.4268 33.048 36.6342 31.5697 37.1271 30.2246C37.6244 28.8693 38.3725 27.6865 39.3715 26.6762C40.3748 25.6558 41.5972 24.8544 43.0386 24.272C44.2411 23.7861 45.4319 23.5114 46.6112 23.4479C47.7977 23.3814 48.9282 23.5102 50.0029 23.8344C51.0848 24.1556 52.0753 24.657 52.9742 25.3386C53.8702 26.013 54.6319 26.8555 55.2592 27.8659L51.8148 29.2575Z" fill="white"/>
</svg>
